<svg xmlns="http://www.w3.org/2000/svg" viewBox="0 0 60.062 60.062"><path d="M60.046 11.196c.004-.024.01-.048.013-.072a1.2 1.2 0 0 0-.01-.224c-.003-.02 0-.037-.003-.056a.98.98 0 0 0-.1-.29c-.008-.015-.02-.03-.028-.046-.003-.002-.003-.005-.004-.008 0-.002-.004-.003-.005-.006-.006-.01-.012-.023-.02-.033a.982.982 0 0 0-.22-.23c-.02-.013-.04-.02-.06-.034a.914.914 0 0 0-.237-.116c-.037-.012-.074-.018-.112-.025a.949.949 0 0 0-.34-.01c-.025.003-.05 0-.076.005L.798 22.046a.999.999 0 0 0-.265 1.864l16.632 8.773 2.917 16.187c-.002.012 0 .025 0 .037a.94.94 0 0 0 .02.354c.022.096.06.185.11.27.01.015.01.034.02.05a.05.05 0 0 0 .012.013c.013.02.03.034.046.053.047.058.096.11.152.156.01.007.015.018.025.025.015.01.032.014.047.024.06.04.124.074.19.1.028.01.053.022.08.03.09.026.184.044.278.044h.003l.012-.002.05.002a.994.994 0 0 0 .713-.315l11.08-7.387 11.6 7.54a.998.998 0 0 0 1.481-.494l13.996-37.99a.982.982 0 0 0 .033-.105c.005-.015.006-.03.01-.044l.006-.034zM48.464 17.58L24.47 35.22c-.038.03-.07.065-.103.1a.197.197 0 0 0-.037.034l-.06.07c-.017.025-.03.05-.047.075a.984.984 0 0 0-.092.187c-.004.013-.012.023-.016.036 0 .004-.005.006-.006.01l-2.75 8.937-2.18-12.09 29.286-15zM22.908 46.593l2.726-9.004 4.244 2.76 1.214.788-4.124 2.75-4.06 2.706zm29.136-33.096l-33.973 17.4-14.14-7.457 48.114-9.94zM44.56 47.504L29.153 37.492l-2.333-1.517 30.155-22.172-12.416 33.7z"/></svg>