<?xml version="1.0" standalone="no"?>
<!DOCTYPE svg PUBLIC "-//W3C//DTD SVG 20010904//EN"
 "http://www.w3.org/TR/2001/REC-SVG-20010904/DTD/svg10.dtd">
<svg version="1.0" xmlns="http://www.w3.org/2000/svg"
 width="700.000000pt" height="700.000000pt" viewBox="0 0 700.000000 700.000000"
 preserveAspectRatio="xMidYMid meet">
<metadata>
Created by potrace 1.11, written by Peter Selinger 2001-2013
</metadata>
<g transform="translate(0.000000,700.000000) scale(0.100000,-0.100000)"
fill="#000000" stroke="none">
<path d="M2969 6996 c-2 -2 -38 -6 -79 -9 -105 -9 -218 -25 -365 -52 -132 -25
-431 -114 -520 -155 -11 -5 -49 -21 -85 -36 -264 -108 -551 -286 -815 -507
-125 -104 -332 -323 -451 -477 -228 -296 -415 -662 -524 -1026 -32 -107 -83
-342 -95 -434 -4 -30 -9 -64 -11 -74 -25 -135 -25 -645 0 -776 3 -14 7 -47 10
-75 7 -68 41 -233 72 -352 102 -394 316 -825 566 -1137 142 -178 349 -388 508
-515 58 -47 127 -112 154 -145 26 -34 67 -83 89 -111 65 -80 315 -326 397
-391 41 -32 77 -61 80 -64 13 -14 183 -132 259 -180 421 -262 911 -426 1396
-467 108 -9 460 -10 565 -1 548 47 1134 267 1577 595 184 135 405 338 541 498
202 236 399 556 518 840 70 170 151 431 179 580 21 115 35 200 40 246 3 30 10
88 14 129 9 74 7 501 -2 570 -3 19 -8 60 -12 90 -59 477 -225 928 -494 1340
-30 47 -58 87 -61 90 -3 3 -17 21 -30 40 -116 169 -387 454 -570 599 -98 78
-125 105 -190 191 -72 95 -293 322 -413 425 -231 198 -550 393 -832 510 -149
62 -356 130 -455 151 -14 3 -50 11 -80 19 -30 7 -84 18 -120 24 -36 6 -75 13
-88 16 -13 2 -50 7 -83 10 -33 4 -70 9 -82 11 -25 6 -503 15 -508 10z m436
-250 c176 -14 434 -61 580 -106 265 -83 490 -183 705 -313 81 -49 280 -190
280 -198 0 -4 -39 7 -87 23 -249 86 -490 138 -758 165 -158 16 -583 8 -696
-12 -13 -3 -40 -7 -59 -9 -468 -60 -1011 -285 -1414 -585 -161 -121 -203 -157
-361 -316 -362 -361 -608 -762 -770 -1250 -33 -99 -88 -315 -99 -385 -3 -19
-8 -46 -11 -60 -3 -14 -8 -45 -11 -70 -3 -25 -7 -52 -9 -60 -29 -103 -26 -648
5 -835 5 -33 12 -76 14 -95 3 -19 12 -67 20 -105 8 -39 17 -82 20 -95 11 -53
15 -69 36 -141 27 -94 79 -248 92 -274 22 -45 -57 58 -136 175 -289 431 -450
891 -493 1400 -12 154 -6 489 11 577 3 12 7 48 11 79 3 32 12 88 20 126 8 37
17 82 20 100 3 17 8 34 10 38 2 3 6 17 8 31 6 31 34 129 57 199 242 730 759
1331 1455 1692 249 129 665 259 910 284 33 4 62 8 65 9 3 2 53 6 110 10 58 4
106 8 107 9 5 4 288 -2 368 -8z m690 -670 c44 -4 87 -9 95 -11 8 -2 40 -7 70
-10 136 -15 500 -108 605 -155 11 -5 49 -21 85 -35 172 -70 320 -148 492 -262
91 -59 102 -70 161 -161 170 -257 293 -526 375 -823 33 -116 69 -286 77 -364
3 -27 8 -57 10 -65 18 -63 24 -425 11 -590 -64 -805 -449 -1529 -1087 -2047
-134 -109 -336 -239 -508 -327 -165 -84 -465 -196 -606 -226 -22 -4 -73 -15
-112 -24 -71 -15 -85 -18 -168 -31 -262 -39 -595 -40 -855 0 -320 49 -577 129
-865 270 -152 74 -361 202 -410 250 -49 50 -176 260 -255 420 -70 144 -134
307 -170 430 -11 39 -24 84 -29 100 -15 47 -60 270 -66 322 -3 27 -7 59 -10
71 -24 123 -25 543 -1 712 14 93 20 128 42 240 129 644 496 1248 1017 1672
218 177 510 350 742 439 28 11 59 24 70 29 65 29 360 114 435 126 14 2 34 5
45 7 20 5 127 22 195 32 19 2 76 8 125 11 50 3 91 7 93 9 5 4 318 -3 397 -9z
m2088 -1173 c288 -391 479 -857 543 -1322 3 -25 8 -57 10 -71 17 -108 23 -416
11 -570 -38 -485 -195 -951 -455 -1355 -163 -252 -396 -512 -617 -688 -33 -27
-67 -54 -75 -60 -8 -7 -51 -37 -95 -68 -686 -480 -1563 -641 -2380 -438 -96
24 -107 27 -259 80 -301 103 -598 267 -846 466 -8 7 21 -1 65 -17 232 -86 542
-155 795 -178 167 -14 518 -8 675 12 17 2 55 7 85 11 30 3 57 8 60 10 3 2 26
6 50 10 25 3 61 10 80 15 19 5 47 11 61 14 112 19 391 113 559 188 254 113
555 302 770 484 86 74 326 320 393 404 38 47 74 92 80 100 81 101 226 336 298
484 28 55 54 109 60 118 27 51 115 290 152 413 17 58 62 243 71 295 3 19 8 46
11 60 3 14 8 45 10 70 3 25 7 54 9 65 13 58 21 192 21 385 0 322 -14 445 -90
791 -14 64 -99 329 -117 362 -19 37 3 13 65 -70z"/>
</g>
</svg>
