<svg id="Layer_1" data-name="Layer 1" xmlns="http://www.w3.org/2000/svg" xmlns:xlink="http://www.w3.org/1999/xlink" viewBox="0 0 264.6 264.6"><defs><style>.cls-1{fill:none;}.cls-2{clip-path:url(#clip-path);}.cls-3{fill:#aba28c;}.cls-4{fill:#9e7f0a;fill-opacity:0.76;}.cls-5{fill:#af8b03;}.cls-42,.cls-5{fill-opacity:0.66;}.cls-6{fill:#fcbfac;}.cls-6,.cls-66,.cls-74{fill-opacity:0.45;}.cls-7{fill:#da5f43;}.cls-59,.cls-7{fill-opacity:0.55;}.cls-8{fill:#2f0415;}.cls-13,.cls-17,.cls-36,.cls-8{fill-opacity:0.56;}.cls-9{fill:#ac8200;fill-opacity:0.65;}.cls-10{fill:#30051c;}.cls-10,.cls-72{fill-opacity:0.44;}.cls-11{fill:#110027;fill-opacity:0.22;}.cls-12{fill:#f4ff6b;}.cls-12,.cls-51,.cls-64,.cls-65{fill-opacity:0.46;}.cls-13{fill:#d03d0a;}.cls-14{fill:#fff957;fill-opacity:0.36;}.cls-15{fill:#ffffa6;}.cls-15,.cls-54{fill-opacity:0.57;}.cls-16{fill:#954500;}.cls-16,.cls-45,.cls-52{fill-opacity:0.58;}.cls-17{fill:#cf6f30;}.cls-18{fill:#945e02;fill-opacity:0.7;}.cls-19{fill:#ffffb4;}.cls-19,.cls-23{fill-opacity:0.35;}.cls-20{fill:#f5efdf;fill-opacity:0.6;}.cls-21{fill:#724b3b;}.cls-21,.cls-24,.cls-33,.cls-40,.cls-50{fill-opacity:0.5;}.cls-22{fill:#a48f1e;fill-opacity:0.62;}.cls-23{fill:#c5b7bb;}.cls-24{fill:#ee9386;}.cls-25{fill:#bcc4cb;fill-opacity:0.64;}.cls-26{fill:#c7b000;}.cls-26,.cls-31,.cls-62{fill-opacity:0.4;}.cls-27{fill:#803503;}.cls-27,.cls-38,.cls-43,.cls-56{fill-opacity:0.49;}.cls-28{fill:#f2edb6;}.cls-28,.cls-60{fill-opacity:0.52;}.cls-29{fill:#fed4a9;}.cls-29,.cls-37,.cls-57{fill-opacity:0.43;}.cls-30{fill:#8f827c;}.cls-30,.cls-73{fill-opacity:0.61;}.cls-31{fill:#330c00;}.cls-32{fill:#cec7ca;}.cls-32,.cls-35,.cls-46,.cls-48,.cls-69{fill-opacity:0.48;}.cls-33{fill:#f3edca;}.cls-34{fill:#908489;}.cls-34,.cls-55{fill-opacity:0.63;}.cls-35{fill:#e7e97c;}.cls-36{fill:#e1e346;}.cls-37{fill:#e6d24b;}.cls-38{fill:#dbaf0a;}.cls-39{fill:#7f5d00;}.cls-39,.cls-47{fill-opacity:0.31;}.cls-40{fill:#5c5756;}.cls-41{fill:#ef7f87;}.cls-41,.cls-53{fill-opacity:0.51;}.cls-42{fill:#ede5e7;}.cls-43{fill:#3d1000;}.cls-44{fill:#ddd60e;fill-opacity:0.27;}.cls-45{fill:#cfc129;}.cls-46{fill:#eee2de;}.cls-47{fill:#ef3181;}.cls-48{fill:#f1f6e0;}.cls-49{fill:#d82f44;fill-opacity:0.38;}.cls-50{fill:#f08098;}.cls-51{fill:#c2ce01;}.cls-52{fill:#e5e4e9;}.cls-53{fill:#9a8c83;}.cls-54{fill:#f3da45;}.cls-55{fill:#bbb4b2;}.cls-56{fill:#9d5b2a;}.cls-57{fill:#f4f02f;}.cls-58{fill:#bfbec0;fill-opacity:0.92;}.cls-59{fill:#d1c534;}.cls-60{fill:#7a3b00;}.cls-61{fill:#c02407;fill-opacity:0.39;}.cls-62{fill:#b29f03;}.cls-63{fill:#bec6d2;}.cls-63,.cls-67,.cls-71{fill-opacity:0.53;}.cls-64{fill:#c7b659;}.cls-65{fill:#f5e7f6;}.cls-66{fill:#dc4a58;}.cls-67{fill:#dbd130;}.cls-68{fill:#eadacf;fill-opacity:0.59;}.cls-69{fill:#dfdf38;}.cls-70{fill:#ccc7ca;fill-opacity:0.37;}.cls-71{fill:#efe642;}.cls-72{fill:#ffe5c0;}.cls-73{fill:#efd44c;}.cls-74{fill:#caaf31;}</style><clipPath id="clip-path"><rect class="cls-1" width="264.6" height="264.6"/></clipPath></defs><title>dewi-origami</title><g class="cls-2"><path class="cls-3" d="M-98.7-.7h512V263.9h-512Z"/><path class="cls-4" d="M63.3,47.3l-386,52,350,48Z"/><path class="cls-5" d="M195.3,185.3l-116,20,138,122Z"/><path class="cls-6" d="M-98.7-242.7l244,468,328-54Z"/><path class="cls-7" d="M169.3,129.3l142,46-72-132Z"/><path class="cls-8" d="M39.3,127.3l-140,12,130-38Z"/><path class="cls-9" d="M293.3,283.3l-172-18,152-52Z"/><path class="cls-10" d="M-88.7,109.3l-46,16,146,14Z"/><path class="cls-11" d="M-24.7,125.3l172,258-410-200Z"/><path class="cls-12" d="M141.3,253.3l74-122-80,64Z"/><path class="cls-13" d="M219.3,107.3l-24-38,20-22Z"/><path class="cls-14" d="M71.3,69.3l-80,52-34-208Z"/><path class="cls-15" d="M249.3,211.3l-60-48,22,110Z"/><path class="cls-16" d="M221.3,275.3l34-18,8-76Z"/><path class="cls-17" d="M225.3,115.3l44-64,16,28Z"/><path class="cls-18" d="M229.3,377.3l-40-200-22,54Z"/><path class="cls-19" d="M5.3-14.7l-142-48,96,162Z"/><path class="cls-20" d="M127.3,155.3l36-36-20,82Z"/><path class="cls-21" d="M23.3,95.3l12,42,36-56Z"/><path class="cls-22" d="M113.3,257.3l26-70-48-36Z"/><path class="cls-23" d="M141.3,71.3l-118,166-50-94Z"/><path class="cls-24" d="M89.3,107.3l216,92-6-66Z"/><path class="cls-25" d="M77.3,91.3l-118-224,396,138Z"/><path class="cls-26" d="M47.3,93.3l-206,32,84-78Z"/><path class="cls-27" d="M245.3,93.3l-8,24-8-68Z"/><path class="cls-28" d="M131.3,143.3l-20-78-18,134Z"/><path class="cls-29" d="M89.3,75.3l146-58-62,62Z"/><path class="cls-30" d="M71.3,71.3l-22-38,8,54Z"/><path class="cls-31" d="M49.3,89.3l18,12-98,30Z"/><path class="cls-32" d="M-32.7,51.3l14-152,42,134Z"/><path class="cls-33" d="M231.3,85.3l-38,130,16-114Z"/><path class="cls-34" d="M187.3,301.3l-290,46,184-152Z"/><path class="cls-35" d="M257.3,79.3l4,106-16-54Z"/><path class="cls-36" d="M209.3,339.3l28-148-26,20Z"/><path class="cls-37" d="M161.3,45.3l-62,36,68-52Z"/><path class="cls-38" d="M93.3,123.3l76-70v12Z"/><path class="cls-39" d="M103.3,233.3l48,38-30-120Z"/><path class="cls-40" d="M29.3,303.3l-158-146,52,184Z"/><path class="cls-41" d="M187.3,55.3l-74,84,68-46Z"/><path class="cls-42" d="M219.3,193.3l-20,34-6-64Z"/><path class="cls-43" d="M-54.7,113.3l88,12-100,4Z"/><path class="cls-44" d="M257.3,109.3l-2,132,32,12Z"/><path class="cls-45" d="M33.3,9.3l-42,80,70-8Z"/><path class="cls-46" d="M141.3,193.3l-12-48,52,38Z"/><path class="cls-47" d="M209.3,89.3l-26,86-32-22Z"/><path class="cls-48" d="M243.3,195.3l-30,84,44-92Z"/><path class="cls-49" d="M241.3,59.3l-30,108,6,26Z"/><path class="cls-50" d="M209.3,47.3l-40,16,30,16Z"/><path class="cls-51" d="M185.3,215.3l-30-16-12,30Z"/><path class="cls-52" d="M105.3,113.3l22,38-26,10Z"/><path class="cls-53" d="M73.3,375.3l-44-246-78,18Z"/><path class="cls-54" d="M229.3,213.3l8-76-12,48Z"/><path class="cls-55" d="M59.3,201.3l12-276,26,314Z"/><path class="cls-56" d="M247.3,21.3l-8,48-16,18Z"/><path class="cls-57" d="M195.3,145.3l16-22-22,54Z"/><path class="cls-58" d="M161.3,17.3l208,48-190-286Z"/><path class="cls-59" d="M89.3,213.3l10-42h18Z"/><path class="cls-60" d="M235.3,237.3l42,34h-52Z"/><path class="cls-61" d="M209.3,111.3l12-40-16-30Z"/><path class="cls-62" d="M125.3,153.3l8-6v66Z"/><path class="cls-63" d="M245.3,55.3l36-32-30,52Z"/><path class="cls-64" d="M7.3,33.3v38l-34-76Z"/><path class="cls-65" d="M183.3,39.3l-42,38,16-36Z"/><path class="cls-66" d="M271.3,85.3l-16,42,42,48Z"/><path class="cls-67" d="M55.3,45.3l-32-4,22,52Z"/><path class="cls-68" d="M107.3,81.3l74-50-78,80Z"/><path class="cls-69" d="M231.3,235.3l-30,10,18-42Z"/><path class="cls-70" d="M215.3-10.7l22,56-16,64Z"/><path class="cls-71" d="M127.3,157.3l24-26-2-8Z"/><path class="cls-72" d="M171.3,95.3l36-24-60,84Z"/><path class="cls-73" d="M183.3,75.3l10,4-28,28Z"/><path class="cls-74" d="M121.3,77.3l12-22-30,24Z"/></g></svg>