<svg xmlns="http://www.w3.org/2000/svg" xmlns:xlink="http://www.w3.org/1999/xlink" viewBox="0 0 956 626"><defs><style>.cls-1{fill:none;}.cls-2{clip-path:url(#clip-path);}.cls-3{fill:#aba28c;}.cls-4{fill:#9e7f0a;fill-opacity:0.76;}.cls-5{fill:#fcdbda;}.cls-38,.cls-43,.cls-5,.cls-59,.cls-62,.cls-91{fill-opacity:0.48;}.cls-6{fill:#af8b03;}.cls-54,.cls-6,.cls-67{fill-opacity:0.66;}.cls-7{fill:#fcbfac;}.cls-103,.cls-7,.cls-86{fill-opacity:0.45;}.cls-8{fill:#da5f43;}.cls-52,.cls-77,.cls-8,.cls-84,.cls-95{fill-opacity:0.55;}.cls-9{fill:#2f0415;}.cls-16,.cls-20,.cls-44,.cls-9{fill-opacity:0.56;}.cls-10{fill:#ac8200;fill-opacity:0.65;}.cls-11{fill:#30051c;}.cls-11,.cls-96{fill-opacity:0.44;}.cls-12{fill:#110027;fill-opacity:0.22;}.cls-13{fill:#f4ff6b;}.cls-13,.cls-68,.cls-83,.cls-85{fill-opacity:0.46;}.cls-14{fill:#bea500;}.cls-14,.cls-18,.cls-71{fill-opacity:0.57;}.cls-15{fill:#c5a830;}.cls-15,.cls-41,.cls-72{fill-opacity:0.63;}.cls-16{fill:#d03d0a;}.cls-17{fill:#fff957;fill-opacity:0.36;}.cls-18{fill:#ffffa6;}.cls-19{fill:#954500;}.cls-19,.cls-58,.cls-69,.cls-81,.cls-94{fill-opacity:0.58;}.cls-20{fill:#cf6f30;}.cls-21{fill:#ed5851;}.cls-21,.cls-48,.cls-60{fill-opacity:0.31;}.cls-22{fill:#945e02;fill-opacity:0.7;}.cls-23{fill:#ffffb4;}.cls-23,.cls-28{fill-opacity:0.35;}.cls-24{fill:#f2fff5;fill-opacity:0.42;}.cls-25{fill:#f5efdf;fill-opacity:0.6;}.cls-26{fill:#724b3b;}.cls-26,.cls-29,.cls-39,.cls-47,.cls-50,.cls-65{fill-opacity:0.5;}.cls-27{fill:#a48f1e;}.cls-27,.cls-90{fill-opacity:0.62;}.cls-28{fill:#c5b7bb;}.cls-29{fill:#ee9386;}.cls-30{fill:#bcc4cb;}.cls-30,.cls-64{fill-opacity:0.64;}.cls-31{fill:#c7b000;}.cls-31,.cls-37,.cls-80{fill-opacity:0.4;}.cls-32{fill:#803503;}.cls-32,.cls-46,.cls-55,.cls-73,.cls-97{fill-opacity:0.49;}.cls-33{fill:#f2edb6;}.cls-100,.cls-101,.cls-33,.cls-78{fill-opacity:0.52;}.cls-34{fill:#c2bebf;fill-opacity:0.85;}.cls-35{fill:#fed4a9;}.cls-35,.cls-45,.cls-74,.cls-87{fill-opacity:0.43;}.cls-36{fill:#8f827c;}.cls-102,.cls-36{fill-opacity:0.61;}.cls-37{fill:#330c00;}.cls-38{fill:#cec7ca;}.cls-39{fill:#f3edca;}.cls-40{fill:#f9ffd3;fill-opacity:0.47;}.cls-41{fill:#908489;}.cls-42{fill:#d6c60e;fill-opacity:0.54;}.cls-43{fill:#e7e97c;}.cls-44{fill:#e1e346;}.cls-45{fill:#e6d24b;}.cls-46{fill:#dbaf0a;}.cls-47{fill:#ffff69;}.cls-48{fill:#7f5d00;}.cls-49{fill:#b4bac0;fill-opacity:0.74;}.cls-50{fill:#5c5756;}.cls-51{fill:#ada35b;}.cls-51,.cls-75,.cls-82,.cls-88,.cls-93,.cls-99{fill-opacity:0.53;}.cls-52{fill:#c9bc53;}.cls-53{fill:#ef7f87;}.cls-53,.cls-70{fill-opacity:0.51;}.cls-54{fill:#ede5e7;}.cls-55{fill:#3d1000;}.cls-56{fill:#d1d8e6;fill-opacity:0.41;}.cls-57{fill:#ddd60e;fill-opacity:0.27;}.cls-58{fill:#cfc129;}.cls-59{fill:#eee2de;}.cls-60{fill:#ef3181;}.cls-61{fill:#feff8e;fill-opacity:0.33;}.cls-62{fill:#f1f6e0;}.cls-63{fill:#d82f44;fill-opacity:0.38;}.cls-64{fill:#e8ede2;}.cls-65{fill:#f08098;}.cls-66{fill:#c8aa1e;fill-opacity:0.68;}.cls-67{fill:#93837f;}.cls-68{fill:#c2ce01;}.cls-69{fill:#e5e4e9;}.cls-70{fill:#9a8c83;}.cls-71{fill:#f3da45;}.cls-72{fill:#bbb4b2;}.cls-73{fill:#9d5b2a;}.cls-74{fill:#f4f02f;}.cls-75{fill:#c19400;}.cls-76{fill:#bfbec0;fill-opacity:0.92;}.cls-77{fill:#d1c534;}.cls-78{fill:#7a3b00;}.cls-79{fill:#c02407;fill-opacity:0.39;}.cls-80{fill:#b29f03;}.cls-81{fill:#d6d8e9;}.cls-82{fill:#bec6d2;}.cls-83{fill:#c7b659;}.cls-84{fill:#240500;}.cls-85{fill:#f5e7f6;}.cls-86{fill:#dc4a58;}.cls-87{fill:#db7790;}.cls-88{fill:#dbd130;}.cls-89{fill:#eadacf;fill-opacity:0.59;}.cls-90{fill:#b4960b;}.cls-91{fill:#dfdf38;}.cls-92{fill:#ccc7ca;fill-opacity:0.37;}.cls-93{fill:#efe642;}.cls-94{fill:#cfd0d1;}.cls-95{fill:#d5ddef;}.cls-96{fill:#ffe5c0;}.cls-97{fill:#dcc46d;}.cls-98{fill:#e5ecf4;fill-opacity:0.67;}.cls-99{fill:#e4ee3a;}.cls-100{fill:#baaa6e;}.cls-101{fill:#edf6f8;}.cls-102{fill:#efd44c;}.cls-103{fill:#caaf31;}</style><clipPath id="clip-path" transform="translate(322.7 242.7)"><rect class="cls-1" width="264.6" height="264.6"/></clipPath></defs><title>dewi-origami</title><g id="Layer_2" data-name="Layer 2"><g class="cls-2"><path class="cls-3" d="M-98.7-.7h512V263.9h-512Z" transform="translate(322.7 242.7)"/><path class="cls-4" d="M63.3,47.3l-386,52,350,48Z" transform="translate(322.7 242.7)"/><path class="cls-5" d="M273.3-138.7l-2,370,362-4Z" transform="translate(322.7 242.7)"/><path class="cls-6" d="M195.3,185.3l-116,20,138,122Z" transform="translate(322.7 242.7)"/><path class="cls-7" d="M-98.7-242.7l244,468,328-54Z" transform="translate(322.7 242.7)"/><path class="cls-8" d="M169.3,129.3l142,46-72-132Z" transform="translate(322.7 242.7)"/><path class="cls-9" d="M39.3,127.3l-140,12,130-38Z" transform="translate(322.7 242.7)"/><path class="cls-10" d="M293.3,283.3l-172-18,152-52Z" transform="translate(322.7 242.7)"/><path class="cls-11" d="M-88.7,109.3l-46,16,146,14Z" transform="translate(322.7 242.7)"/><path class="cls-12" d="M-24.7,125.3l172,258-410-200Z" transform="translate(322.7 242.7)"/><path class="cls-13" d="M141.3,253.3l74-122-80,64Z" transform="translate(322.7 242.7)"/><path class="cls-14" d="M365.3,255.3l-48-46-26,62Z" transform="translate(322.7 242.7)"/><path class="cls-15" d="M335.3,179.3l-24-40,62,156Z" transform="translate(322.7 242.7)"/><path class="cls-16" d="M219.3,107.3l-24-38,20-22Z" transform="translate(322.7 242.7)"/><path class="cls-17" d="M71.3,69.3l-80,52-34-208Z" transform="translate(322.7 242.7)"/><path class="cls-18" d="M249.3,211.3l-60-48,22,110Z" transform="translate(322.7 242.7)"/><path class="cls-19" d="M221.3,275.3l34-18,8-76Z" transform="translate(322.7 242.7)"/><path class="cls-20" d="M225.3,115.3l44-64,16,28Z" transform="translate(322.7 242.7)"/><path class="cls-21" d="M267.3,43.3l50,120,38-8Z" transform="translate(322.7 242.7)"/><path class="cls-22" d="M229.3,377.3l-40-200-22,54Z" transform="translate(322.7 242.7)"/><path class="cls-23" d="M5.3-14.7l-142-48,96,162Z" transform="translate(322.7 242.7)"/><path class="cls-24" d="M337.3,181.3l30,90,6-200Z" transform="translate(322.7 242.7)"/><path class="cls-25" d="M127.3,155.3l36-36-20,82Z" transform="translate(322.7 242.7)"/><path class="cls-26" d="M23.3,95.3l12,42,36-56Z" transform="translate(322.7 242.7)"/><path class="cls-27" d="M113.3,257.3l26-70-48-36Z" transform="translate(322.7 242.7)"/><path class="cls-28" d="M141.3,71.3l-118,166-50-94Z" transform="translate(322.7 242.7)"/><path class="cls-29" d="M89.3,107.3l216,92-6-66Z" transform="translate(322.7 242.7)"/><path class="cls-30" d="M77.3,91.3l-118-224,396,138Z" transform="translate(322.7 242.7)"/><path class="cls-31" d="M47.3,93.3l-206,32,84-78Z" transform="translate(322.7 242.7)"/><path class="cls-32" d="M245.3,93.3l-8,24-8-68Z" transform="translate(322.7 242.7)"/><path class="cls-33" d="M131.3,143.3l-20-78-18,134Z" transform="translate(322.7 242.7)"/><path class="cls-34" d="M437.3,173.3l-22,202-114-66Z" transform="translate(322.7 242.7)"/><path class="cls-35" d="M89.3,75.3l146-58-62,62Z" transform="translate(322.7 242.7)"/><path class="cls-36" d="M71.3,71.3l-22-38,8,54Z" transform="translate(322.7 242.7)"/><path class="cls-37" d="M49.3,89.3l18,12-98,30Z" transform="translate(322.7 242.7)"/><path class="cls-38" d="M-32.7,51.3l14-152,42,134Z" transform="translate(322.7 242.7)"/><path class="cls-39" d="M231.3,85.3l-38,130,16-114Z" transform="translate(322.7 242.7)"/><path class="cls-40" d="M303.3,249.3l26-78-62,36Z" transform="translate(322.7 242.7)"/><path class="cls-41" d="M187.3,301.3l-290,46,184-152Z" transform="translate(322.7 242.7)"/><path class="cls-42" d="M375.3,217.3l-12,8,12-32Z" transform="translate(322.7 242.7)"/><path class="cls-43" d="M257.3,79.3l4,106-16-54Z" transform="translate(322.7 242.7)"/><path class="cls-44" d="M209.3,339.3l28-148-26,20Z" transform="translate(322.7 242.7)"/><path class="cls-45" d="M161.3,45.3l-62,36,68-52Z" transform="translate(322.7 242.7)"/><path class="cls-46" d="M93.3,123.3l76-70v12Z" transform="translate(322.7 242.7)"/><path class="cls-47" d="M285.3,207.3l-12,26,48,96Z" transform="translate(322.7 242.7)"/><path class="cls-48" d="M103.3,233.3l48,38-30-120Z" transform="translate(322.7 242.7)"/><path class="cls-49" d="M327.3,1.3l140-176-54,392Z" transform="translate(322.7 242.7)"/><path class="cls-50" d="M29.3,303.3l-158-146,52,184Z" transform="translate(322.7 242.7)"/><path class="cls-51" d="M349.3,215.3l-36-14,36,50Z" transform="translate(322.7 242.7)"/><path class="cls-52" d="M393.3,187.3l-6-10-42,94Z" transform="translate(322.7 242.7)"/><path class="cls-53" d="M187.3,55.3l-74,84,68-46Z" transform="translate(322.7 242.7)"/><path class="cls-54" d="M219.3,193.3l-20,34-6-64Z" transform="translate(322.7 242.7)"/><path class="cls-55" d="M-54.7,113.3l88,12-100,4Z" transform="translate(322.7 242.7)"/><path class="cls-56" d="M-64.7,55.3l-6-72,26,84Z" transform="translate(322.7 242.7)"/><path class="cls-57" d="M257.3,109.3l-2,132,32,12Z" transform="translate(322.7 242.7)"/><path class="cls-58" d="M33.3,9.3l-42,80,70-8Z" transform="translate(322.7 242.7)"/><path class="cls-59" d="M141.3,193.3l-12-48,52,38Z" transform="translate(322.7 242.7)"/><path class="cls-60" d="M209.3,89.3l-26,86-32-22Z" transform="translate(322.7 242.7)"/><path class="cls-61" d="M-150.7,175.3l68-104-6-134Z" transform="translate(322.7 242.7)"/><path class="cls-62" d="M243.3,195.3l-30,84,44-92Z" transform="translate(322.7 242.7)"/><path class="cls-63" d="M241.3,59.3l-30,108,6,26Z" transform="translate(322.7 242.7)"/><path class="cls-64" d="M383.3,127.3l-112-94,78,46Z" transform="translate(322.7 242.7)"/><path class="cls-65" d="M209.3,47.3l-40,16,30,16Z" transform="translate(322.7 242.7)"/><path class="cls-66" d="M-50.7,123.3l28-82,10,18Z" transform="translate(322.7 242.7)"/><path class="cls-67" d="M-80.7,171.3l-52-48,62,4Z" transform="translate(322.7 242.7)"/><path class="cls-68" d="M185.3,215.3l-30-16-12,30Z" transform="translate(322.7 242.7)"/><path class="cls-69" d="M105.3,113.3l22,38-26,10Z" transform="translate(322.7 242.7)"/><path class="cls-70" d="M73.3,375.3l-44-246-78,18Z" transform="translate(322.7 242.7)"/><path class="cls-71" d="M229.3,213.3l8-76-12,48Z" transform="translate(322.7 242.7)"/><path class="cls-72" d="M59.3,201.3l12-276,26,314Z" transform="translate(322.7 242.7)"/><path class="cls-73" d="M247.3,21.3l-8,48-16,18Z" transform="translate(322.7 242.7)"/><path class="cls-74" d="M195.3,145.3l16-22-22,54Z" transform="translate(322.7 242.7)"/><path class="cls-75" d="M-88.7,41.3l-2-10,12-16Z" transform="translate(322.7 242.7)"/><path class="cls-76" d="M161.3,17.3l208,48-190-286Z" transform="translate(322.7 242.7)"/><path class="cls-77" d="M89.3,213.3l10-42h18Z" transform="translate(322.7 242.7)"/><path class="cls-78" d="M235.3,237.3l42,34h-52Z" transform="translate(322.7 242.7)"/><path class="cls-79" d="M209.3,111.3l12-40-16-30Z" transform="translate(322.7 242.7)"/><path class="cls-80" d="M125.3,153.3l8-6v66Z" transform="translate(322.7 242.7)"/><path class="cls-81" d="M-18.7,15.3l18,42-14-6Z" transform="translate(322.7 242.7)"/><path class="cls-82" d="M245.3,55.3l36-32-30,52Z" transform="translate(322.7 242.7)"/><path class="cls-83" d="M7.3,33.3v38l-34-76Z" transform="translate(322.7 242.7)"/><path class="cls-84" d="M-20.7,123.3l-8,20-18-26Z" transform="translate(322.7 242.7)"/><path class="cls-85" d="M183.3,39.3l-42,38,16-36Z" transform="translate(322.7 242.7)"/><path class="cls-86" d="M271.3,85.3l-16,42,42,48Z" transform="translate(322.7 242.7)"/><path class="cls-87" d="M281.3,167.3l28-12-16,48Z" transform="translate(322.7 242.7)"/><path class="cls-88" d="M55.3,45.3l-32-4,22,52Z" transform="translate(322.7 242.7)"/><path class="cls-89" d="M107.3,81.3l74-50-78,80Z" transform="translate(322.7 242.7)"/><path class="cls-90" d="M277.3,323.3l70-66-42-20Z" transform="translate(322.7 242.7)"/><path class="cls-91" d="M231.3,235.3l-30,10,18-42Z" transform="translate(322.7 242.7)"/><path class="cls-92" d="M215.3-10.7l22,56-16,64Z" transform="translate(322.7 242.7)"/><path class="cls-93" d="M127.3,157.3l24-26-2-8Z" transform="translate(322.7 242.7)"/><path class="cls-94" d="M-6.7,41.3l-28,2,14-38Z" transform="translate(322.7 242.7)"/><path class="cls-95" d="M-244.7-18.7l132-4,30,84Z" transform="translate(322.7 242.7)"/><path class="cls-96" d="M171.3,95.3l36-24-60,84Z" transform="translate(322.7 242.7)"/><path class="cls-97" d="M333.3,95.3l30,12-68-50Z" transform="translate(322.7 242.7)"/><path class="cls-98" d="M-154.7-176.7l108,50,2,156Z" transform="translate(322.7 242.7)"/><path class="cls-99" d="M315.3,159.3l8,4-26-52Z" transform="translate(322.7 242.7)"/><path class="cls-100" d="M-52.7,15.3l-20-44-14,50Z" transform="translate(322.7 242.7)"/><path class="cls-101" d="M375.3,147.3l-38,44,26,32Z" transform="translate(322.7 242.7)"/><path class="cls-102" d="M183.3,75.3l10,4-28,28Z" transform="translate(322.7 242.7)"/><path class="cls-103" d="M121.3,77.3l12-22-30,24Z" transform="translate(322.7 242.7)"/></g></g></svg>