<svg class="menu-icon" xmlns="http://www.w3.org/2000/svg" viewBox="-199.3 371 72 65.8">
	<g class="top-bun">
		<path class="st0" d="M-195.533 392.147h64.4c-1.12-10.32-15.134-18.494-32.2-18.494-17.067 0-31.08 8.174-32.2 18.494zm65.8 2.666h-67.2c-.734 0-1.334-.6-1.334-1.333 0-12.4 15.667-22.493 34.934-22.493 19.266 0 34.933 10.093 34.933 22.493 0 .733-.587 1.333-1.333 1.333"/>
		<path class="st0" d="M-183.44 383.747c0 .853-.693 1.56-1.56 1.56-.853 0-1.56-.694-1.56-1.56 0-.854.693-1.56 1.56-1.56.853 0 1.56.693 1.56 1.56"/>
		<path class="st0" d="M-174.053 386.16c0 .853-.694 1.56-1.56 1.56-.854 0-1.56-.693-1.56-1.56 0-.853.693-1.56 1.56-1.56.866.013 1.56.707 1.56 1.56"/>
		<path class="st0" d="M-171.667 378.387c0 .853-.693 1.56-1.56 1.56-.853 0-1.56-.694-1.56-1.56 0-.854.694-1.56 1.56-1.56.867 0 1.56.693 1.56 1.56"/>
		<path class="st0" d="M-139.76 384.613c0 .854-.693 1.56-1.56 1.56-.853 0-1.56-.693-1.56-1.56 0-.853.693-1.56 1.56-1.56.853 0 1.56.694 1.56 1.56"/>
		<path class="st0" d="M-148.4 379.587c0 .853-.693 1.56-1.56 1.56-.853 0-1.56-.694-1.56-1.56 0-.854.693-1.56 1.56-1.56.867.013 1.56.706 1.56 1.56"/>
		<path class="st0" d="M-153.453 385.307c0 .853-.694 1.56-1.56 1.56-.854 0-1.56-.694-1.56-1.56 0-.854.693-1.56 1.56-1.56.853 0 1.56.693 1.56 1.56"/>
		<path class="st0" d="M-158.547 377.707c0 .853-.693 1.56-1.56 1.56-.853 0-1.56-.694-1.56-1.56 0-.854.694-1.56 1.56-1.56.867 0 1.56.693 1.56 1.56"/>
		<path class="st0" d="M-164.053 382.187c0 .853-.694 1.56-1.56 1.56-.854 0-1.56-.694-1.56-1.56 0-.854.693-1.56 1.56-1.56.866.013 1.56.706 1.56 1.56"/>
	</g>
	<path class="meat" d="M-132.987 408.613h-6.493c-1.387 3.6-3.013 7.147-4.293 7.054-2.254-.16-6.574-6.44-17.787-7.054h-32.12c-3.053 0-5.56 2.507-5.56 5.56s2.507 5.56 5.56 5.56h60.693c3.054 0 5.56-2.506 5.56-5.56s-2.506-5.56-5.56-5.56"/>
	<path class="salad" d="M-177.973 404.973c-2.734 0-5.307-1.16-7.96-2.36-.48-.213-.974-.44-1.48-.653-5.747-2.52-7.96-.907-9.494 1.213-.426.6-1.266.734-1.866.294-.6-.427-.734-1.267-.294-1.867 2.88-3.973 6.92-4.64 12.734-2.093.506.226 1.013.453 1.506.666 4.547 2.054 7.56 3.414 11.76.267 5.827-4.36 9.84-3.467 18.267-.173 5.853 2.28 8.533.773 11.627-.974.88-.493 1.8-1.013 2.8-1.44 4.866-2.066 11.76 3.054 12.533 3.64.587.454.693 1.28.253 1.867-.44.587-1.28.693-1.866.253-1.76-1.333-6.96-4.546-9.867-3.306-.867.36-1.667.826-2.52 1.306-3.213 1.814-6.867 3.88-13.907 1.134-7.906-3.08-10.88-3.787-15.693-.174-2.373 1.76-4.507 2.4-6.533 2.4"/>
	<path class="bottom-bun" d="M-195.6 425.16v3.787c0 2.786 3.467 5.186 6.307 5.186h51.946c2.84 0 6.307-2.386 6.307-5.186v-3.787h-64.56zm58.24 11.64h-51.947c-4.146 0-8.973-3.427-8.973-7.853v-5.12c0-.347.147-.694.387-.947s.586-.387.946-.387h67.214c.733 0 1.333.6 1.333 1.334v5.12c0 4.426-4.813 7.853-8.96 7.853"/>
</svg>