<svg xmlns="http://www.w3.org/2000/svg" width="94.691" height="94.691" viewBox="0 0 94.691 94.691">
    <path d="M41.035 83.61c-11.92 0-21.617-9.697-21.617-21.617 0-7.323 3.77-14.187 9.91-18.158l-2.196-11.43C15.655 37.8 8.336 49.222 8.336 61.993c0 18.03 14.67 32.7 32.7 32.7 8.828 0 17.335-3.625 23.485-9.976l-4.728-11.988C55.98 79.355 48.826 83.61 41.035 83.61z"/>
    <path d="M85.932 86.39l-14.97-37.96c-.666-2.715-3.084-4.615-5.88-4.62l-16.108-.02-1.126-5.862h17.36c3.348 0 6.07-2.723 6.07-6.07 0-3.347-2.724-6.07-6.07-6.07H45.514l-1.002-5.218.543-.56c2.148-2.22 3.33-5.134 3.33-8.208C48.387 5.294 43.094 0 36.585 0c-6.508 0-11.8 5.294-11.8 11.802 0 4.695 2.784 8.943 7.095 10.82l.724.316 5.392 28.064c.02.098.04.174.062.252l.176.606c.03.087.063.18.1.27l.087.2c.056.12.105.227.158.33l.1.178c.06.105.124.215.192.32l.102.152c.074.106.154.213.237.316l.09.116c.094.11.19.216.29.32l.077.08c.133.134.253.24.376.345l.09.08c.107.087.255.197.407.302l.15.094c.096.06.202.13.315.19l.13.067c.172.087.272.14.375.185l.18.074c.14.054.243.093.35.128l.206.064c.123.037.246.066.37.096l.185.04c.144.028.295.05.447.067l.118.018c.168.017.35.03.536.03h.087l16.88.02 13.772 34.9c.92 2.334 3.14 3.844 5.648 3.844.76 0 1.51-.145 2.228-.428 3.11-1.224 4.644-4.756 3.416-7.87z"/>
</svg>
