<?xml version="1.0" encoding="utf-8"?>
<!-- Generator: Adobe Illustrator 19.0.0, SVG Export Plug-In . SVG Version: 6.00 Build 0)  -->
<svg version="1.1" id="Layer_1" xmlns="http://www.w3.org/2000/svg" xmlns:xlink="http://www.w3.org/1999/xlink" x="0px" y="0px"
	 viewBox="-233.8 372.3 81.2 73.3" style="enable-background:new -233.8 372.3 81.2 73.3;" xml:space="preserve">
<path d="M-152.6,425.3c-0.4-1.6-2-2.6-3.6-2.2l-7.9,2c2.5-5,3.8-10.5,3.8-16.1c0-20.2-16.4-36.6-36.7-36.6s-36.7,16.4-36.7,36.6
	c0,20.2,16.4,36.7,36.7,36.7c5.3,0,10.4-1.1,15.1-3.3c1.5-0.7,2.2-2.5,1.5-4c-0.7-1.5-2.5-2.2-4-1.5c-4,1.8-8.2,2.7-12.6,2.7
	c-16.9,0-30.7-13.8-30.7-30.6c0-3.9,0.7-7.5,2-10.9c0.7,2.2,1.9,4.1,3.5,5.8c2.7,2.7,6.2,4.1,10,4.1c3.8,0,7.3-1.5,10-4.1
	c5.5-5.5,5.5-14.5,0-20c-1.6-1.6-3.6-2.8-5.8-3.5c3.4-1.3,7.1-2,10.9-2c16.9,0,30.7,13.8,30.7,30.6c0,4.7-1.1,9.4-3.2,13.6l-2.2-8.7
	c-0.4-1.6-2-2.6-3.6-2.2c-1.6,0.4-2.6,2-2.2,3.6l3.8,15.3c0.3,1.4,1.6,2.3,2.9,2.3c0.2,0,0.5,0,0.7-0.1l15.4-3.8
	C-153.2,428.6-152.2,426.9-152.6,425.3L-152.6,425.3z M-206.5,399.6c-1.5,1.5-3.6,2.4-5.8,2.4c-2.2,0-4.2-0.8-5.8-2.4
	c-1.5-1.5-2.4-3.6-2.4-5.8s0.8-4.2,2.4-5.8c1.6-1.6,3.7-2.4,5.8-2.4c2.1,0,4.2,0.8,5.8,2.4C-203.3,391.3-203.3,396.4-206.5,399.6
	L-206.5,399.6z"/>
</svg>
