<svg xmlns="http://www.w3.org/2000/svg" viewBox="0 0 416.991 416.991">
    <path d="M187.409 101.165a10.512 10.512 0 0 0-5.238-1.4 10.537 10.537 0 0 0-9.101 5.262c-2.884 5.011-1.157 11.439 3.862 14.338 1.591.916 3.402 1.4 5.238 1.4 3.739 0 7.224-2.011 9.101-5.262 2.884-5.01 1.157-11.439-3.862-14.338zM110.257 171.672c-1.835 0-3.646.484-5.258 1.412-5.007 2.898-6.727 9.33-3.841 14.327a10.53 10.53 0 0 0 9.1 5.262h.001a10.53 10.53 0 0 0 5.25-1.407 10.433 10.433 0 0 0 4.891-6.373c.727-2.71.354-5.542-1.049-7.971a10.53 10.53 0 0 0-9.094-5.25zM136.574 269.904c-5.79 0-10.5 4.71-10.5 10.5 0 5.789 4.711 10.5 10.5 10.5 5.79 0 10.5-4.711 10.5-10.5s-4.71-10.5-10.5-10.5zM240.071 297.647a10.514 10.514 0 0 0-5.267-1.417c-3.729 0-7.208 2.003-9.101 5.262-2.884 5.01-1.157 11.439 3.834 14.322a10.517 10.517 0 0 0 5.266 1.416c3.732 0 7.214-2.006 9.101-5.262a10.429 10.429 0 0 0 1.04-7.963 10.406 10.406 0 0 0-4.873-6.358zM306.718 224.323a10.53 10.53 0 0 0-5.251 1.407 10.43 10.43 0 0 0-4.894 6.384 10.408 10.408 0 0 0 1.045 7.947 10.53 10.53 0 0 0 9.1 5.262 10.53 10.53 0 0 0 5.251-1.407 10.424 10.424 0 0 0 4.893-6.384 10.408 10.408 0 0 0-1.045-7.947 10.525 10.525 0 0 0-9.099-5.262z"/>
    <path d="M416.97 206.596l-.013-.831a9.999 9.999 0 0 0-9.494-9.864c-14.875-.751-28.007-9.639-34.27-23.193a9.999 9.999 0 0 0-14.842-3.978c-6.706 4.73-14.927 7.335-23.146 7.336a39.932 39.932 0 0 1-19.935-5.363c-13.458-7.77-21.242-22.804-19.83-38.299a9.998 9.998 0 0 0-2.888-7.977 10.033 10.033 0 0 0-7.977-2.889 39.953 39.953 0 0 1-3.614.164c-14.271 0-27.561-7.662-34.683-19.996-7.77-13.458-6.994-30.369 1.976-43.084a10 10 0 0 0-3.976-14.842c-13.548-6.262-22.434-19.387-23.188-34.254a10 10 0 0 0-9.858-9.492l-.816-.013C209.777.01 209.138 0 208.496 0 93.531 0 0 93.531 0 208.496s93.531 208.496 208.496 208.496 208.495-93.531 208.495-208.496c0-.635-.01-1.267-.021-1.9zM208.496 396.991C104.559 396.991 20 312.433 20 208.496c0-101.888 81.258-185.154 182.372-188.398a59.756 59.756 0 0 0 24.107 36.418c-8.063 17.495-7.341 38.179 2.48 55.19 9.771 16.925 27.278 27.985 46.567 29.748 1.761 19.188 12.729 36.746 29.744 46.57 9.114 5.262 19.466 8.043 29.936 8.042 8.82-.001 17.392-1.897 25.258-5.544a59.76 59.76 0 0 0 36.427 24.102c-3.242 101.113-86.507 182.367-188.395 182.367z"/>
</svg>
