<svg width="12" height="12" viewBox="0 0 12 12" fill="none" xmlns="http://www.w3.org/2000/svg">
<path d="M0.333984 5.41406C0.634766 5.40625 0.878906 5.32617 1.06641 5.17383C1.25781 5.01758 1.38477 4.80469 1.44727 4.53516C1.50977 4.26562 1.54297 3.80469 1.54688 3.15234C1.55078 2.5 1.5625 2.07031 1.58203 1.86328C1.61719 1.53516 1.68164 1.27148 1.77539 1.07227C1.87305 0.873047 1.99219 0.714844 2.13281 0.597656C2.27344 0.476562 2.45312 0.384766 2.67188 0.322266C2.82031 0.283203 3.0625 0.263672 3.39844 0.263672H3.72656V1.18359H3.54492C3.13867 1.18359 2.86914 1.25781 2.73633 1.40625C2.60352 1.55078 2.53711 1.87695 2.53711 2.38477C2.53711 3.4082 2.51562 4.05469 2.47266 4.32422C2.40234 4.74219 2.28125 5.06445 2.10938 5.29102C1.94141 5.51758 1.67578 5.71875 1.3125 5.89453C1.74219 6.07422 2.05273 6.34961 2.24414 6.7207C2.43945 7.08789 2.53711 7.69141 2.53711 8.53125C2.53711 9.29297 2.54492 9.74609 2.56055 9.89062C2.5918 10.1562 2.66992 10.3418 2.79492 10.4473C2.92383 10.5527 3.17383 10.6055 3.54492 10.6055H3.72656V11.5254H3.39844C3.01562 11.5254 2.73828 11.4941 2.56641 11.4316C2.31641 11.3418 2.10938 11.1953 1.94531 10.9922C1.78125 10.793 1.67383 10.5391 1.62305 10.2305C1.57617 9.92188 1.55078 9.41602 1.54688 8.71289C1.54297 8.00977 1.50977 7.52344 1.44727 7.25391C1.38477 6.98438 1.25781 6.77148 1.06641 6.61523C0.878906 6.45898 0.634766 6.37695 0.333984 6.36914V5.41406ZM11.0156 5.41406V6.36914C10.7148 6.37695 10.4688 6.45898 10.2773 6.61523C10.0898 6.77148 9.96484 6.98438 9.90234 7.25391C9.83984 7.51953 9.80664 7.97852 9.80273 8.63086C9.79883 9.2832 9.78711 9.71289 9.76758 9.91992C9.73242 10.252 9.66602 10.5156 9.56836 10.7109C9.47461 10.9102 9.35742 11.0684 9.2168 11.1855C9.07617 11.3066 8.89648 11.3984 8.67773 11.4609C8.5293 11.5039 8.28711 11.5254 7.95117 11.5254H7.62305V10.6055H7.80469C8.21094 10.6055 8.48047 10.5312 8.61328 10.3828C8.74609 10.2383 8.8125 9.91016 8.8125 9.39844C8.8125 8.42188 8.83008 7.80273 8.86523 7.54102C8.92773 7.10742 9.05273 6.76172 9.24023 6.50391C9.42773 6.24219 9.69336 6.03906 10.0371 5.89453C9.58789 5.67969 9.27148 5.39648 9.08789 5.04492C8.9043 4.68945 8.8125 4.0918 8.8125 3.25195C8.8125 2.49023 8.80273 2.03516 8.7832 1.88672C8.75586 1.625 8.67773 1.44336 8.54883 1.3418C8.42383 1.23633 8.17578 1.18359 7.80469 1.18359H7.62305V0.263672H7.95117C8.33398 0.263672 8.61133 0.294922 8.7832 0.357422C9.0332 0.443359 9.24023 0.587891 9.4043 0.791016C9.56836 0.994141 9.67383 1.25 9.7207 1.55859C9.77148 1.86719 9.79883 2.37305 9.80273 3.07617C9.80664 3.7793 9.83984 4.26562 9.90234 4.53516C9.96484 4.80078 10.0898 5.01172 10.2773 5.16797C10.4688 5.32422 10.7148 5.40625 11.0156 5.41406Z" fill="black"/>
</svg>
