<svg xmlns="http://www.w3.org/2000/svg" viewBox="0 0 486.999 486.999">
  <path d="M245.998 369.04c-36.206-9.38-82.293-37.022-122.338-85.505 65.484 49.425 102.91 74.005 186.4 79.73-39.576-8.453-89.953-30.713-113.322-87.507-20.397-49.61-29.63-90.472-39.31-121.77-3.055 14.12-11.266 27.767-28.827 38.108 0 0 7.847-6.81 13.738-22.284 8.196-21.525 4.357-45.778-10.064-63.722-14.44-17.952-37.308-26.933-60.093-23.527-.014.008-.05.008-.083.017-78.017 11.733-113.17 157.756 1.205 267.255 70.155 64.992 159.01 61.136 220.168 46.12 72.377 8.105 144.22-17.5 193.53-84.837-17.094 14.523-101.657 94.028-241.002 57.923z"/>
</svg>
