<svg width="11" height="12" viewBox="0 0 11 12" fill="none" xmlns="http://www.w3.org/2000/svg">
<path d="M2.80664 11.5254C2.22461 10.791 1.73242 9.93164 1.33008 8.94727C0.927734 7.96289 0.726562 6.94336 0.726562 5.88867C0.726562 4.95898 0.876953 4.06836 1.17773 3.2168C1.5293 2.22852 2.07227 1.24414 2.80664 0.263672H3.5625C3.08984 1.07617 2.77734 1.65625 2.625 2.00391C2.38672 2.54297 2.19922 3.10547 2.0625 3.69141C1.89453 4.42188 1.81055 5.15625 1.81055 5.89453C1.81055 7.77344 2.39453 9.65039 3.5625 11.5254H2.80664ZM8.81836 11.5254H8.0625C9.23047 9.65039 9.81445 7.77344 9.81445 5.89453C9.81445 5.16016 9.73047 4.43164 9.5625 3.70898C9.42969 3.12305 9.24414 2.56055 9.00586 2.02148C8.85352 1.66992 8.53906 1.08398 8.0625 0.263672H8.81836C9.55273 1.24414 10.0957 2.22852 10.4473 3.2168C10.748 4.06836 10.8984 4.95898 10.8984 5.88867C10.8984 6.94336 10.6953 7.96289 10.2891 8.94727C9.88672 9.93164 9.39648 10.791 8.81836 11.5254Z" fill="black"/>
</svg>
