<svg xmlns="http://www.w3.org/2000/svg" version="1.1" x="0px" y="0px" viewBox="0 0 100 125" style="enable-background:new 0 0 100 100;" xml:space="preserve"><g><path d="M50,2.2c-1.7,0-3,1.3-3,3v7.9H15.2c-3.8,0-6.8,3.1-6.8,6.8v46.9c0,3.8,3.1,6.8,6.8,6.8h16.6l-9.6,17.9   c-0.8,1.5-0.2,3.3,1.2,4.1c0.5,0.2,0.9,0.4,1.4,0.4c1.1,0,2.1-0.6,2.6-1.6l11.1-20.7H47v21.1c0,1.7,1.3,3,3,3s3-1.3,3-3V73.7h8.4   l11.1,20.7c0.5,1,1.6,1.6,2.6,1.6c0.5,0,1-0.1,1.4-0.4c1.5-0.8,2-2.6,1.2-4.1l-9.6-17.9h16.6c3.8,0,6.8-3.1,6.8-6.8V20   c0-3.8-3.1-6.8-6.8-6.8H53V5.2C53,3.5,51.7,2.2,50,2.2z M85.6,20v46.9c0,0.5-0.4,0.8-0.8,0.8H15.2c-0.5,0-0.8-0.4-0.8-0.8V20   c0-0.5,0.4-0.8,0.8-0.8h69.6C85.3,19.1,85.6,19.5,85.6,20z"/></g></svg>
