<svg id="Layer_1" data-name="Layer 1" xmlns="http://www.w3.org/2000/svg" viewBox="0 0 2206.5 1963.38"><title>react</title><path d="M1814.2,636.3q-35.25-12-71.1-22.4c4-16.1,7.6-32.2,11-48.4,53.8-261,18.6-471.3-101.4-540.5-115.1-66.4-303.4,2.8-493.5,168.3-18.7,16.3-37.1,33.2-54.9,50.4q-18-17.25-36.6-33.8C868.4,33,668.7-41.6,548.8,27.9c-115,66.6-149,264.2-100.6,511.6,4.8,24.5,10.3,48.9,16.3,73.1-28.3,8-55.6,16.6-81.7,25.7C149.2,719.7,0,847.4,0,979.8c0,136.8,160.1,273.9,403.5,357.1q29.55,10.05,59.7,18.7-9.75,39.15-17.3,78.8c-46.2,243.1-10.1,436,104.6,502.2,118.5,68.3,317.3-1.9,510.9-171.1,15.3-13.4,30.7-27.6,46-42.4q29.1,28,59.6,54.4c187.5,161.4,372.7,226.5,487.3,160.2,118.4-68.5,156.8-275.8,106.9-528.1-3.8-19.3-8.3-38.9-13.2-59,14-4.1,27.7-8.4,41-12.8,253-83.8,417.5-219.3,417.5-357.9,0-133-154-261.5-392.3-343.6h0ZM1221.1,264.4C1384,122.6,1536.2,66.7,1605.6,106.7c73.9,42.6,102.6,214.4,56.2,439.8-3,14.7-6.3,29.3-9.9,43.9-91.5-21.1-190.9-36.8-295-46.6C1296.3,457.5,1233.4,379,1170.4,311c16.4-16,33.4-31.5,50.7-46.6h0ZM713.6,757.1q-32.4,56.25-62.3,114.1c-27.5-65.1-50.9-129.1-70.1-190.9,62.9-14.1,130.1-25.6,200-34.3Q746.25,700.6,713.6,757.1Zm-62.1,335.8q30,57.75,62.6,114.2,33.3,57.45,69.3,113.3c-72.3-8.1-140.4-19-203.4-32.7C599.4,1224.7,623.4,1159.4,651.5,1092.9Zm50-110.9q43.5-90.75,93.8-177.9t107-170.3c65.6-5,132.9-7.6,200.9-7.6,68.3,0,135.7,2.6,201.3,7.6q56.1,83,106.3,169.7,50.4,87,95.1,177-44.25,90.9-94.8,178.6-50.1,87.15-105.9,170.8c-65.5,4.7-133.1,7.1-202.1,7.1-68.6,0-135.4-2.1-199.8-6.3q-57.15-83.4-107.8-171.1-50.25-86.85-94-177.6h0Zm791.3,224.4q33.3-57.75,64-116.9c29.5,67.2,54.4,132.3,74.1,194.1-64,14.6-133.1,26.4-205.8,35.1q35-55.5,67.7-112.3h0Zm63.1-335.2q-30.6-58.05-63.5-114.8-32.4-56-67.1-110.3c70.4,8.9,137.8,20.7,201.2,35.2-19,60.9-42.7,124.6-70.6,189.9h0ZM1104.3,378.4c43.5,47.1,87,99.7,129.8,156.8q-130.35-6.15-260.8-.1C1016.2,478.5,1060.1,426,1104.3,378.4ZM596,109.5c73.8-42.7,237,18.2,409.1,171q16.5,14.7,33.1,30.6c-64.1,68.8-127.4,147.2-188,232.6-103.8,9.5-203.1,25-294.4,45.7q-8.4-33.75-15.2-68c-41.5-212-13.9-371.8,55.4-411.9h0ZM488.4,1264.7c-18.3-5.2-36.4-10.9-54.5-17.1-107.6-36.8-196.4-84.6-257.4-136.7-54.7-46.9-82.4-93.4-82.4-131.2,0-80.3,119.8-182.8,319.6-252.5q37.65-13,76-23.9C517.3,793.1,553.5,887,597.2,982c-44.2,96.4-80.9,191.8-108.8,282.7h0Zm510.8,429.6c-85.6,74.8-171.4,127.9-247,154.6-67.9,24-122,24.7-154.7,5.8-69.6-40.1-98.5-195.1-59.1-403q7-36.9,16.1-73.3c90.4,20,190.4,34.4,297.4,43,61,85.9,125,164.9,189.4,234C1027.5,1668.9,1013.5,1681.8,999.2,1694.3Zm107.7-106.5c-44.7-48.2-89.2-101.5-132.8-158.9q63.45,2.55,129.1,2.5,67.5,0,133.2-3C1193.4,1486.9,1150.1,1540.3,1106.9,1587.8Zm572.4,131.1c-13.1,70.8-39.6,118.1-72.2,137-69.5,40.3-218.3-12.1-378.6-150.1q-27.6-23.7-55.5-50.6c62.2-68,124.3-147.1,185-234.9,106.7-9.5,207.5-24.9,298.8-46.1q6.75,27.3,11.9,53.4C1690.7,1539.3,1693.9,1640.1,1679.3,1718.9Zm80-470.7c-12.1,4-24.5,7.9-37.1,11.6-27.9-88.4-65.6-182.4-111.7-279.5,44-94.8,80.2-187.6,107.4-275.5q33.9,9.75,65.6,20.7c204.2,70.3,328.7,174.2,328.7,254.3,0,85.2-134.5,196-352.9,268.4h0Z"/><path d="M1103.2,1176.8c108.8,0,197-88.2,197-197s-88.2-197-197-197-197,88.2-197,197S994.4,1176.8,1103.2,1176.8Z"/></svg>