<svg xmlns="http://www.w3.org/2000/svg" viewBox="0 0 60 60">
  <path d="M42.595 0h-25.19C14.975 0 13 1.977 13 4.405v51.19C13 58.022 14.976 60 17.405 60h25.19C45.024 60 47 58.023 47 55.595V4.405C47 1.977 45.024 0 42.595 0zM15 8h30v38H15V8zm2.405-6h25.19C43.92 2 45 3.08 45 4.405V6H15V4.405C15 3.08 16.08 2 17.405 2zm25.19 56h-25.19C16.08 58 15 56.92 15 55.595V48h30v7.595C45 56.92 43.92 58 42.595 58z"/>
  <path d="M30 49c-2.206 0-4 1.794-4 4s1.794 4 4 4 4-1.794 4-4-1.794-4-4-4zm0 6c-1.103 0-2-.897-2-2s.897-2 2-2 2 .897 2 2-.897 2-2 2zM26 5h4c.552 0 1-.447 1-1s-.448-1-1-1h-4c-.552 0-1 .447-1 1s.448 1 1 1zM33 5h1c.552 0 1-.447 1-1s-.448-1-1-1h-1c-.552 0-1 .447-1 1s.448 1 1 1zM31.962 11.02h-3.924c-1.124 0-2.038.914-2.038 2.038v3.924c0 1.124.914 2.038 2.038 2.038h3.924c1.124 0 2.038-.914 2.038-2.038v-3.924c0-1.124-.914-2.038-2.038-2.038zM32 16.98c0 .022-.017.04-.038.04L28 16.98l.038-3.96 3.962.038v3.923zM22.962 11.02h-3.924c-1.124 0-2.038.914-2.038 2.038v3.924c0 1.124.914 2.038 2.038 2.038h3.924c1.124 0 2.038-.914 2.038-2.038v-3.924c0-1.124-.914-2.038-2.038-2.038zM23 16.98c0 .022-.017.04-.038.04L19 16.98l.038-3.96 3.962.038v3.923zM40.962 11.02h-3.924c-1.124 0-2.038.914-2.038 2.038v3.924c0 1.124.914 2.038 2.038 2.038h3.924c1.124 0 2.038-.914 2.038-2.038v-3.924c0-1.124-.914-2.038-2.038-2.038zM41 16.98c0 .022-.017.04-.038.04L37 16.98l.038-3.96 3.962.038v3.923zM31.962 20h-3.924C26.914 20 26 20.914 26 22.038v3.924c0 1.124.914 2.038 2.038 2.038h3.924C33.086 28 34 27.086 34 25.962v-3.924C34 20.914 33.086 20 31.962 20zM32 25.962c0 .02-.017.038-.038.038L28 25.962 28.038 22l3.962.038v3.924zM22.962 20h-3.924C17.914 20 17 20.914 17 22.038v3.924c0 1.124.914 2.038 2.038 2.038h3.924C24.086 28 25 27.086 25 25.962v-3.924C25 20.914 24.086 20 22.962 20zM23 25.962c0 .02-.017.038-.038.038L19 25.962 19.038 22l3.962.038v3.924zM40.962 20h-3.924C35.914 20 35 20.914 35 22.038v3.924c0 1.124.914 2.038 2.038 2.038h3.924C42.086 28 43 27.086 43 25.962v-3.924C43 20.914 42.086 20 40.962 20zM41 25.962c0 .02-.017.038-.038.038L37 25.962 37.038 22l3.962.038v3.924zM31.962 29h-3.924C26.914 29 26 29.914 26 31.038v3.924c0 1.124.914 2.038 2.038 2.038h3.924C33.086 37 34 36.086 34 34.962v-3.924C34 29.914 33.086 29 31.962 29zM32 34.962c0 .02-.017.038-.038.038L28 34.962 28.038 31l3.962.038v3.924zM22.962 29h-3.924C17.914 29 17 29.914 17 31.038v3.924c0 1.124.914 2.038 2.038 2.038h3.924C24.086 37 25 36.086 25 34.962v-3.924C25 29.914 24.086 29 22.962 29zM23 34.962c0 .02-.017.038-.038.038L19 34.962 19.038 31l3.962.038v3.924zM40.962 29h-3.924C35.914 29 35 29.914 35 31.038v3.924c0 1.124.914 2.038 2.038 2.038h3.924C42.086 37 43 36.086 43 34.962v-3.924C43 29.914 42.086 29 40.962 29zM41 34.962c0 .02-.017.038-.038.038L37 34.962 37.038 31l3.962.038v3.924z"/>
</svg>
