<svg xmlns="http://www.w3.org/2000/svg" width="87.607" height="87.607" viewBox="0 0 87.607 87.607">
  <path d="M52.173 57.876c-.028-.33-.122-.658-.286-.97L31.254 17.97c-.61-1.143-1.983-1.683-3.23-1.266-1.247.423-1.992 1.674-1.755 2.95l8.04 43.173c.063.343.196.65.377.93.078.37.173.736.3 1.104 1.295 3.695 4.838 6.185 8.813 6.185 1.027 0 2.048-.166 3.024-.497 2.354-.792 4.253-2.438 5.347-4.636 1.096-2.198 1.252-4.68.445-6.994-.123-.363-.275-.708-.442-1.042zm-8.37-38.343c-1.47 0-2.662 1.17-2.662 2.613s1.192 2.614 2.663 2.614c21.218 0 38.476 16.96 38.476 37.806 0 1.442 1.194 2.613 2.663 2.613 1.473 0 2.664-1.172 2.664-2.614-.002-23.732-19.65-43.033-43.804-43.033zm-27.527 9.554C5.933 37.307 0 49.507 0 62.565c0 1.443 1.19 2.615 2.663 2.615 1.474 0 2.665-1.172 2.665-2.615 0-11.47 5.21-22.19 14.298-29.41 1.146-.907 1.32-2.555.397-3.678-.923-1.122-2.6-1.298-3.747-.39z"/>
</svg>
