<svg xmlns="http://www.w3.org/2000/svg" viewBox="0 0 512 512">
  <path d="M469.333 21.333H42.667C19.135 21.333 0 40.47 0 64v298.667c0 23.53 19.135 42.667 42.667 42.667H192.03c-.46 17.052-3.73 44.306-15.894 57.104-4.47 4.708-9.604 6.896-16.135 6.896-5.895 0-10.666 4.77-10.666 10.667s4.77 10.668 10.667 10.668h192c5.897 0 10.668-4.77 10.668-10.667 0-5.895-4.77-10.666-10.667-10.666-6.53 0-11.666-2.188-16.134-6.896-12.165-12.798-15.434-40.052-15.893-57.104h149.362c23.53 0 42.667-19.135 42.667-42.667V64c-.002-23.53-19.137-42.667-42.67-42.667zm-271.604 448c12.88-19.75 15.373-48.188 15.694-64h85.15c.323 15.813 2.815 44.25 15.696 64H197.73zm292.937-106.666c0 11.76-9.573 21.333-21.333 21.333H42.667c-11.76 0-21.333-9.573-21.333-21.333V320h469.333v42.667zm0-64H21.333V64c0-11.76 9.573-21.333 21.333-21.333h426.667c11.76 0 21.333 9.573 21.333 21.333v234.667z"/>
  <circle cx="256" cy="352" r="21.333"/>
  <path d="M256 85.333c-7.9 0-14.536 4.517-18.224 10.92C122.872 98.81 78.518 158.11 75.016 216.377 68.557 220.048 64 226.723 64 234.668 64 246.427 73.573 256 85.333 256c11.76 0 21.333-9.573 21.333-21.333 0-7.652-4.275-14.07-10.346-17.836 2.243-29.95 21.13-96.564 141.81-99.226C241.89 123.704 248.326 128 256 128c11.76 0 21.333-9.573 21.333-21.333 0-11.76-9.573-21.334-21.333-21.334zM444 194.333L337.333 109c-3.22-2.573-7.614-3.063-11.292-1.28-3.687 1.78-6.04 5.51-6.04 9.614V256c0 4.53 2.864 8.563 7.134 10.063 1.156.406 2.354.604 3.53.604 3.178 0 6.26-1.427 8.334-4l39.458-49.333h58.875c4.532 0 8.564-2.865 10.064-7.135 1.502-4.273.137-9.033-3.394-11.867zM373.333 192c-3.24 0-6.302 1.47-8.333 4l-23.667 29.594V139.53L406.927 192h-33.594z"/>
</svg>
