<svg xmlns="http://www.w3.org/2000/svg" width="542.662" height="542.662" viewBox="0 0 542.662 542.662">
  <path d="M363.168 74.05c-18.537 0-36.43 2.37-53.263 6.76-28.03-11.01-59.3-17.2-92.283-17.2C97.627 63.61 0 145.124 0 245.313 0 298.455 27.28 348.14 75.14 382.7v96.353l99.846-55.573c14.104 2.345 28.42 3.54 42.63 3.54 59.48 0 113.44-20.042 152.763-52.445 8.982-.304 17.993-1.16 26.908-2.607l84.34 46.938V337.38c38.906-28.557 61.034-69.35 61.034-112.995.012-82.893-80.52-150.334-179.494-150.334zM217.622 397.737c-14.18 0-28.484-1.338-42.508-3.968l-5.2-.973-65.497 36.452v-62.022l-6.504-4.346c-43.617-29.15-68.636-72.01-68.636-117.57 0-84.045 84.492-152.424 188.346-152.424 16.76 0 32.996 1.804 48.472 5.143-49.54 26.785-82.437 73.398-82.437 126.353 0 71.607 60.104 131.64 140.27 146.672-30.28 16.812-66.895 26.68-106.306 26.68zm241.243-80.143l-6.502 4.346v47.173L402.377 341.3l-.12.022-5.072.95c-11.23 2.103-22.666 3.167-34.02 3.167-1.226 0-2.426-.053-3.638-.075-81.162-1.572-146.593-55.214-146.593-120.982 0-51.133 39.568-94.93 95.313-112.642 14.197-4.508 29.437-7.33 45.355-8.144 3.167-.163 6.347-.27 9.565-.27 82.837 0 150.23 54.308 150.23 121.057 0 36.075-19.88 70.052-54.532 93.21z"/>
</svg>
