<svg xmlns="http://www.w3.org/2000/svg" xmlns:xlink="http://www.w3.org/1999/xlink" version="1.1" x="0px" y="0px" viewBox="0 0 100 125" enable-background="new 0 0 100 100" xml:space="preserve"><path d="M84.875,12.394h-69.75c-3.436,0-6.231,2.796-6.231,6.231v62.75c0,3.436,2.796,6.231,6.231,6.231h69.75  c3.436,0,6.231-2.796,6.231-6.231v-62.75C91.106,15.189,88.311,12.394,84.875,12.394z M30.519,83.144H15.125  c-0.976,0-1.769-0.793-1.769-1.769V36.356h17.162V83.144z M86.644,81.375c0,0.976-0.793,1.769-1.769,1.769H34.981V36.356h51.662  V81.375z M86.644,31.894H13.356V18.625c0-0.976,0.793-1.769,1.769-1.769h69.75c0.976,0,1.769,0.793,1.769,1.769V31.894z   M79.501,21.061c-1.781,0-3.231,1.45-3.231,3.231s1.45,3.231,3.231,3.231s3.231-1.45,3.231-3.231S81.282,21.061,79.501,21.061z   M69.501,21.061c-1.781,0-3.231,1.45-3.231,3.231s1.45,3.231,3.231,3.231s3.231-1.45,3.231-3.231S71.282,21.061,69.501,21.061z   M59.501,21.061c-1.781,0-3.231,1.45-3.231,3.231s1.45,3.231,3.231,3.231s3.231-1.45,3.231-3.231S61.282,21.061,59.501,21.061z"/></svg>
