<svg xmlns="http://www.w3.org/2000/svg" width="469.09" height="469.089" viewBox="0 0 469.09 469.089">
  <path d="M205.566 181.586L11.138 376.013c-7.232 7.23-10.85 15.893-10.85 25.98 0 10.28 3.617 18.843 10.85 25.7L41.4 458.53c7.426 7.042 16.086 10.56 25.98 10.56 10.09 0 18.655-3.518 25.698-10.56l194.71-194.716c-18.648-7.426-35.157-18.322-49.533-32.69-14.368-14.373-25.263-30.885-32.69-49.538zM98.504 396.57c-3.62 3.614-7.903 5.425-12.85 5.425-4.95 0-9.23-1.81-12.847-5.425-3.617-3.617-5.426-7.898-5.426-12.847 0-4.944 1.81-9.232 5.427-12.854 3.616-3.61 7.895-5.422 12.847-5.422 4.95 0 9.233 1.81 12.85 5.42 3.615 3.622 5.424 7.91 5.424 12.855 0 4.948-1.81 9.23-5.424 12.847zM466.38 132.477c-1.62-1.906-3.857-2.856-6.708-2.856-1.71 0-8.42 3.382-20.13 10.14-11.703 6.754-24.602 14.46-38.684 23.123-14.09 8.663-21.607 13.278-22.556 13.85l-55.106-30.55V82.23l83.65-48.255c3.046-2.093 4.57-4.758 4.57-7.994 0-3.233-1.524-5.897-4.57-7.99-8.377-5.713-18.61-10.14-30.69-13.28C364.07 1.57 352.505 0 341.467 0c-35.21 0-65.33 12.518-90.357 37.546-25.036 25.026-37.545 55.15-37.545 90.36 0 35.212 12.516 65.334 37.544 90.362 25.025 25.026 55.146 37.544 90.357 37.544 26.84 0 51.442-7.953 73.806-23.842 22.36-15.893 38.02-36.592 46.966-62.097 4.373-12.75 6.562-22.84 6.562-30.262.007-2.847-.808-5.227-2.423-7.133z"/>
</svg>
