<svg xmlns="http://www.w3.org/2000/svg" viewBox="0 0 54 54"><path d="M1 18h24a1 1 0 0 0 1-1V5a1 1 0 0 0-1-1H1a1 1 0 0 0-1 1v12a1 1 0 0 0 1 1zM2 6h22v10H2V6zM25 36H1a1 1 0 0 0-1 1v12a1 1 0 0 0 1 1h24a1 1 0 0 0 1-1V37a1 1 0 0 0-1-1zm-1 12H2V38h22v10zM53 4H29a1 1 0 0 0-1 1v12a1 1 0 0 0 1 1h24a1 1 0 0 0 1-1V5a1 1 0 0 0-1-1zm-1 12H30V6h22v10zM53 36H29a1 1 0 0 0-1 1v12a1 1 0 0 0 1 1h24a1 1 0 0 0 1-1V37a1 1 0 0 0-1-1zm-1 12H30V38h22v10zM14 21v12a1 1 0 0 0 1 1h24a1 1 0 0 0 1-1V21a1 1 0 0 0-1-1H15a1 1 0 0 0-1 1zm2 1h22v10H16V22zM1 34h10a1 1 0 0 0 1-1V21a1 1 0 0 0-1-1H1a1 1 0 0 0-1 1v12a1 1 0 0 0 1 1zm1-12h8v10H2V22zM53 20H43a1 1 0 0 0-1 1v12a1 1 0 0 0 1 1h10a1 1 0 0 0 1-1V21a1 1 0 0 0-1-1zm-1 12h-8V22h8v10z"/></svg>