<svg id="Layer_1" xmlns="http://www.w3.org/2000/svg" viewBox="0 0 159.9 100.7"><style>.st0{fill:none;stroke:#000;stroke-miterlimit:10}</style><g id="XMLID_16_"><path id="XMLID_17_" class="st0" d="M.9 1.4c6.9-3.6 12.2 4.1 12.2 9.2 0 10.2-1.5 37.3-.8 39.6.7-3 11.4-39.3 22.2-32.9 8 4.8 7.5 15.2 7.5 16.8 7-21.9 14-22.4 15.7-21.9 15.7 4 9.8 33.3 9.8 43.2-.7 8.1-.6 22.1-.4 30.2.7 23.9 18.5-1.7 20.9-34.8.3-1.5 2.8-.6 2.4 2.7-2.9 35.1-14.3 50.1-26.6 46-12.3-4.1-7.5-39.6-6.8-52.8 0-8.1 3.4-29-.9-29.3-2.7-.2-10.4 17.1-11.1 19.4-5.4 13.9-3.5 34.4-4.2 42.5-2.3 14.8-10.7 2.1-10.5-1.5.7-11.8 1.2-55-.8-55.5-4.3-.1-14.8 34.6-16.4 39.7 0 10.1-2 16.1-2.7 19.1C4.3 97.2.8 73.2.6 65.5.3 54.6.6 32 1.1 16.6 1.4 8.6.4 2.8.9 1.4z"/><path id="XMLID_19_" class="st0" d="M110.5 41.8c11.7-3.9 22.8-10.1 23.1-22.8-3.9-23.2-38.5-5.6-42.2-1.5-1.7 1.9-5.4-1.5-1.5-3.2 45.5-26 52.2 3.8 52.2 7.7 0 10.6-3.3 19.3-15.3 26 0 0 6.9 2.2 9.3 6 0 0 16.5-2.9 20.4-3.7 1.7 0 4.2 1.4 2.1 3-7 1.3-13.3 3.1-18.4 4.4 1.7 3.2 2.5 5.5 3.3 8 3.8 15.5-2.9 31.4-27.4 33.2-22.2-.4-26.1-23.3-19-30.7 2.5-2.6 2.3-2.6.8-4 0-14.2 1.7-27.6 6.3-41 .5-4.7 2.6-5.5 3.4-4.7 2.5 3.2 5.5 5.1 7.2 8.3.8 2.5-3.5 12.5-4.3 15zm25.7 25.8s.2-7.3-1.6-9.5c-4.6 1.7-25.6 6.5-27.2 8.9-21 10.8-3.2 26.5 3.4 26.2 20.2-.7 23.7-15 25.4-25.6zm-28.6-5.7c8.7-2.5 24.2-7 25-7-3.2-1.7-6.4-3.3-9.6-4.1-3.9-.8-14.2-.8-14.2 0-.8 3.2-.4 7.2-1.2 11.1z"/></g></svg>