<svg id="Layer_1" xmlns="http://www.w3.org/2000/svg" viewBox="0 0 112 77.8"><style>.st0{fill:none;stroke:#000;stroke-miterlimit:10}</style><g id="XMLID_15_"><path id="XMLID_16_" class="st0" d="M47.1 75.6c-3.2-.1-6.5-3.7-6.5-11.6V17.7c0-7.6-3.4-7.6-4.7-7.6-1.5 0-4.8 0-4.8 8.6v54c.2 0 .5.3.5.5 0 1-3.3 2.4-5.8 2.4-1.3 0-2.5 0-2.5-1.9v-56c0-7.6-3.2-7.6-4.7-7.6-1.3 0-4.8 0-4.8 7.6V62c0 8.8-3 13.6-8.6 13.6-3.7 0-4.7-3-4.7-4.8 0-.9 1.3-.3 2.7-.8 1.4-.5 2.8-2.9 2.8-9.5V18.7C6 7 12.4 2.8 18.4 2.8c1.7 0 6.1.4 9.2 4.1 2.5-3.7 6.2-4.1 8.1-4.1 6.2 0 12.7 4.2 12.7 15.9v44.5c0 4.2 2.1 6.5 4.5 7.7 1.6 1-2.4 4.8-5.8 4.7z"/><path id="XMLID_18_" class="st0" d="M74.6 20.4c0-1.9-.4-2.5-.4-3.2 0-1 1.2-1.7 2.6-1.7 3.3 0 5.6 2 5.6 4.4V57c0 9.6 3.2 13.4 9.1 13.4 5.6 0 9.8-4.4 9.8-10.2 0-9-6.9-11.7-13.2-11.7-1.8 0-3.5-7.5-.5-7.5 4.7 0 16.2-3.1 16.2-17.6 0-7.6-4.9-15.4-17.2-15.4C70.5 8 64 18.6 64 30.8c0 8.8 3.6 11.9 3.8 12.2 1.1-.3 1.5.4 1.5 1.4 0 1.8-2.7 8.4-5.6 6.2-1.6-1.5-7.3-7.5-7.3-19.2C56.4 12.7 68.7.5 86.5.5c15.1 0 25 8.5 25 22.7 0 10.9-5.6 17.6-12.9 21.5 5.8 1.7 10.5 6.7 10.5 15.3 0 10-7.6 17.3-17.5 17.3-13.1 0-17-8.3-17-20.6V20.4z"/></g></svg>