<svg xmlns="http://www.w3.org/2000/svg">
    <symbol id="a11y" viewBox="0 0 94.691 94.691">
       <path d="M41.035 83.61c-11.92 0-21.617-9.697-21.617-21.617 0-7.323 3.77-14.187 9.91-18.158l-2.196-11.43C15.655 37.8 8.336 49.222 8.336 61.993c0 18.03 14.67 32.7 32.7 32.7 8.828 0 17.335-3.625 23.485-9.976l-4.728-11.988C55.98 79.355 48.826 83.61 41.035 83.61z"/> <path d="M85.932 86.39l-14.97-37.96c-.666-2.715-3.084-4.615-5.88-4.62l-16.108-.02-1.126-5.862h17.36c3.348 0 6.07-2.723 6.07-6.07 0-3.347-2.724-6.07-6.07-6.07H45.514l-1.002-5.218.543-.56c2.148-2.22 3.33-5.134 3.33-8.208C48.387 5.294 43.094 0 36.585 0c-6.508 0-11.8 5.294-11.8 11.802 0 4.695 2.784 8.943 7.095 10.82l.724.316 5.392 28.064c.02.098.04.174.062.252l.176.606c.03.087.063.18.1.27l.087.2c.056.12.105.227.158.33l.1.178c.06.105.124.215.192.32l.102.152c.074.106.154.213.237.316l.09.116c.094.11.19.216.29.32l.077.08c.133.134.253.24.376.345l.09.08c.107.087.255.197.407.302l.15.094c.096.06.202.13.315.19l.13.067c.172.087.272.14.375.185l.18.074c.14.054.243.093.35.128l.206.064c.123.037.246.066.37.096l.185.04c.144.028.295.05.447.067l.118.018c.168.017.35.03.536.03h.087l16.88.02 13.772 34.9c.92 2.334 3.14 3.844 5.648 3.844.76 0 1.51-.145 2.228-.428 3.11-1.224 4.644-4.756 3.416-7.87z"/> 
    </symbol>
    <symbol id="agile" viewBox="-233.8 372.3 81.2 73.3">
       <path d="M-152.6,425.3c-0.4-1.6-2-2.6-3.6-2.2l-7.9,2c2.5-5,3.8-10.5,3.8-16.1c0-20.2-16.4-36.6-36.7-36.6s-36.7,16.4-36.7,36.6
	c0,20.2,16.4,36.7,36.7,36.7c5.3,0,10.4-1.1,15.1-3.3c1.5-0.7,2.2-2.5,1.5-4c-0.7-1.5-2.5-2.2-4-1.5c-4,1.8-8.2,2.7-12.6,2.7
	c-16.9,0-30.7-13.8-30.7-30.6c0-3.9,0.7-7.5,2-10.9c0.7,2.2,1.9,4.1,3.5,5.8c2.7,2.7,6.2,4.1,10,4.1c3.8,0,7.3-1.5,10-4.1
	c5.5-5.5,5.5-14.5,0-20c-1.6-1.6-3.6-2.8-5.8-3.5c3.4-1.3,7.1-2,10.9-2c16.9,0,30.7,13.8,30.7,30.6c0,4.7-1.1,9.4-3.2,13.6l-2.2-8.7
	c-0.4-1.6-2-2.6-3.6-2.2c-1.6,0.4-2.6,2-2.2,3.6l3.8,15.3c0.3,1.4,1.6,2.3,2.9,2.3c0.2,0,0.5,0,0.7-0.1l15.4-3.8
	C-153.2,428.6-152.2,426.9-152.6,425.3L-152.6,425.3z M-206.5,399.6c-1.5,1.5-3.6,2.4-5.8,2.4c-2.2,0-4.2-0.8-5.8-2.4
	c-1.5-1.5-2.4-3.6-2.4-5.8s0.8-4.2,2.4-5.8c1.6-1.6,3.7-2.4,5.8-2.4c2.1,0,4.2,0.8,5.8,2.4C-203.3,391.3-203.3,396.4-206.5,399.6
	L-206.5,399.6z"/> 
    </symbol>
    <symbol id="codepen" viewBox="0 0 31.665 31.665">
       <g> <path d="M16.878,0.415c-0.854-0.565-1.968-0.552-2.809,0.034L1.485,9.214c-0.671,0.468-1.071,1.233-1.071,2.052v9.444
		c0,0.84,0.421,1.623,1.122,2.086l12.79,8.455c0.836,0.553,1.922,0.553,2.758,0l13.044-8.618c0.7-0.463,1.122-1.246,1.122-2.086
		v-9.279c0-0.839-0.421-1.622-1.121-2.085L16.878,0.415z M26.621,10.645l-4.821,3.237l-4.521-3.288L17.25,4.127L26.621,10.645z
		 M13.979,4.133v6.329l-4.633,3.24l-4.621-3.099L13.979,4.133z M3.458,13.722l2.991,2.004l-2.991,2.093V13.722z M14.058,27.215
		l-9.331-6.258l4.661-3.258l4.67,3.133V27.215z M12.286,15.674l3.021-2.113l3.519,2.313l-3.119,2.095L12.286,15.674z M17.354,27.215
		V20.83l4.463-2.991l4.805,3.159L17.354,27.215z M27.954,17.927l-3.168-2.082l3.168-2.125V17.927z"/> </g> 
    </symbol>
    <symbol id="curly-brackets" viewBox="0 0 16 16">
       <path d="M2.1 3.1c0.2 1.3 0.4 1.6 0.4 2.9 0 0.8-1.5 1.5-1.5 1.5v1c0 0 1.5 0.7 1.5 1.5 0 1.3-0.2 1.6-0.4 2.9-0.3 2.1 0.8 3.1 1.8 3.1s2.1 0 2.1 0v-2c0 0-1.8 0.2-1.8-1 0-0.9 0.2-0.9 0.4-2.9 0.1-0.9-0.5-1.6-1.1-2.1 0.6-0.5 1.2-1.1 1.1-2-0.3-2-0.4-2-0.4-2.9 0-1.2 1.8-1.1 1.8-1.1v-2c0 0-1 0-2.1 0s-2.1 1-1.8 3.1z"/> <path d="M13.9 3.1c-0.2 1.3-0.4 1.6-0.4 2.9 0 0.8 1.5 1.5 1.5 1.5v1c0 0-1.5 0.7-1.5 1.5 0 1.3 0.2 1.6 0.4 2.9 0.3 2.1-0.8 3.1-1.8 3.1s-2.1 0-2.1 0v-2c0 0 1.8 0.2 1.8-1 0-0.9-0.2-0.9-0.4-2.9-0.1-0.9 0.5-1.6 1.1-2.1-0.6-0.5-1.2-1.1-1.1-2 0.2-2 0.4-2 0.4-2.9 0-1.2-1.8-1.1-1.8-1.1v-2c0 0 1 0 2.1 0s2.1 1 1.8 3.1z"/> 
    </symbol>
    <symbol id="eye" viewBox="0 0 512 512">
       <g> <path d="M256 96C144.34 96 47.56 161.02 0 256c47.56 94.98 144.34 160 256 160 111.656 0 208.44-65.02 256-160-47.56-94.98-144.344-160-256-160zm126.225 84.852c30.082 19.187 55.572 44.887 74.72 75.148-19.147 30.26-44.64 55.96-74.72 75.148C344.428 355.258 300.78 368 256 368c-44.78 0-88.428-12.743-126.225-36.852C99.695 311.96 74.205 286.26 55.058 256c19.146-30.262 44.637-55.962 74.717-75.148 1.96-1.25 3.938-2.46 5.93-3.65C130.724 190.866 128 205.612 128 221c0 70.69 57.308 128 128 128 70.69 0 128-57.31 128-128 0-15.387-2.725-30.134-7.703-43.8 1.988 1.19 3.97 2.402 5.928 3.652zM256 205c0 26.51-21.49 48-48 48s-48-21.49-48-48 21.49-48 48-48 48 21.49 48 48z"/> </g> 
    </symbol>
    <symbol id="feather" viewBox="0 0 486.999 486.999">
       <path d="M245.998 369.04c-36.206-9.38-82.293-37.022-122.338-85.505 65.484 49.425 102.91 74.005 186.4 79.73-39.576-8.453-89.953-30.713-113.322-87.507-20.397-49.61-29.63-90.472-39.31-121.77-3.055 14.12-11.266 27.767-28.827 38.108 0 0 7.847-6.81 13.738-22.284 8.196-21.525 4.357-45.778-10.064-63.722-14.44-17.952-37.308-26.933-60.093-23.527-.014.008-.05.008-.083.017-78.017 11.733-113.17 157.756 1.205 267.255 70.155 64.992 159.01 61.136 220.168 46.12 72.377 8.105 144.22-17.5 193.53-84.837-17.094 14.523-101.657 94.028-241.002 57.923z"/> 
    </symbol>
    <symbol id="github" viewBox="0 0 1024 1024">
      <path clip-rule="evenodd" d="M667.575 684.036c29.498 42.73 31.01 91.438 30.54 140.826-.57 59.8-.11 119.604-.05 179.408.022 19.207-.445 19.73-19.1 19.73-78.256-.013-156.512-.006-234.77-.008-17.453 0-19.02-1.667-18.995-19.188.055-38.14.018-76.282.018-116.467-13.5 1.382-27.038 2.83-40.59 4.143-66.12 6.4-123.747-10.497-168.358-62.186-6.244-7.236-11.23-15.61-16.383-23.72-22.712-35.76-44.708-71.99-68.222-107.206-7.278-10.897-18.543-19.128-27.96-28.6-4.958-4.99-9.87-10.027-15.706-15.966 16.314-10.603 31.94-7.718 46.735-5.44 36.94 5.688 61.914 28.566 81.694 58.915 9.844 15.105 20.03 30.51 32.674 43.164 40.49 40.53 89.668 53.606 145.37 40.97 35.93-8.15 28.96-4.368 34.328-37.188 3.585-21.92 9.63-42.8 21.56-61.73 1.98-3.14 3.618-6.493 6.055-10.912-15.766-3.11-30.49-5.605-45.016-8.956-57.635-13.29-110.78-35.758-152.84-78.96-44.573-45.79-68.698-100.626-70.376-164.982-1.41-54.08-1.08-107.997 11.167-161.12 7.86-34.097 22.07-64.648 47.013-89.984 3.865-3.928 6.128-13.232 4.327-18.36-17.77-50.602-15.334-100.625 1.086-150.938C254.6.627 257.574-1.458 266.216.903c31.694 8.664 58.826 25.018 81.456 48.46 15.443 15.995 29.577 33.262 44.914 50.662 39.15-28.285 85.473-29.278 131.177-31.946 50.53-2.95 101.104-2.15 150.76 8.613 19.284 4.182 37.626 12.71 54.768 18.69 20.14-19.135 40.942-38.615 61.42-58.433C809.2 19.052 831.104 7.903 855.813 1.303c9.458-2.526 14.257-.28 17.46 8.95 16.997 48.974 19.867 97.927.77 147.02-2.783 7.16-4.694 13.9 1.885 20.188 33.404 31.946 50.023 72.172 53.555 117.25 3.73 47.6 8.206 95.606 5.865 143.117-4.347 88.167-48.115 154.374-124.163 198.896-40.77 23.87-85.285 36.96-131.78 43.855-2.663.394-5.353.662-7.978 1.232-1.062.234-1.984 1.116-3.855 2.226z" fill-rule="evenodd"/>
    </symbol>
    <symbol id="html" viewBox="0 0 502.664 502.664">
       <g> <g> <path d="M153.821,358.226L0,274.337v-46.463l153.821-83.414v54.574L46.636,250.523l107.185,53.431
			C153.821,303.954,153.821,358.226,153.821,358.226z"/> <path d="M180.094,387.584L282.103,115.08h32.227L212.084,387.584H180.094z"/> <path d="M348.843,358.226v-54.272l107.164-52.999l-107.164-52.59v-53.927l153.821,83.522v46.183
			L348.843,358.226z"/> </g> </g> 
    </symbol>
    <symbol id="linkedin" viewBox="0 0 430.117 430.117">
       <g> <path id="LinkedIn" d="M430.117,261.543V420.56h-92.188V272.193c0-37.271-13.334-62.707-46.703-62.707
		c-25.473,0-40.632,17.142-47.301,33.724c-2.432,5.928-3.058,14.179-3.058,22.477V420.56h-92.219c0,0,1.242-251.285,0-277.32h92.21
		v39.309c-0.187,0.294-0.43,0.611-0.606,0.896h0.606v-0.896c12.251-18.869,34.13-45.824,83.102-45.824
		C384.633,136.724,430.117,176.361,430.117,261.543z M52.183,9.558C20.635,9.558,0,30.251,0,57.463
		c0,26.619,20.038,47.94,50.959,47.94h0.616c32.159,0,52.159-21.317,52.159-47.94C103.128,30.251,83.734,9.558,52.183,9.558z
		 M5.477,420.56h92.184v-277.32H5.477V420.56z"/> </g> 
    </symbol>
    <symbol id="open-source" viewBox="0 0 50 50">
       <path d="M25 3C12.85 3 3 12.85 3 25c0 9.412 5.913 17.44 14.225 20.582l4.95-13.105C19.153 31.335 17 28.422 17 25c0-4.418 3.582-8 8-8s8 3.582 8 8c0 3.422-2.153 6.335-5.175 7.477l4.95 13.105C41.087 42.44 47 34.412 47 25c0-12.15-9.85-22-22-22z" fill="none" stroke="#000" stroke-width="2" stroke-linejoin="round" stroke-miterlimit="10"/> 
    </symbol>
    <symbol id="react" viewBox="0 0 2206.5 1963.38">
      <title>react</title><path d="M1814.2,636.3q-35.25-12-71.1-22.4c4-16.1,7.6-32.2,11-48.4,53.8-261,18.6-471.3-101.4-540.5-115.1-66.4-303.4,2.8-493.5,168.3-18.7,16.3-37.1,33.2-54.9,50.4q-18-17.25-36.6-33.8C868.4,33,668.7-41.6,548.8,27.9c-115,66.6-149,264.2-100.6,511.6,4.8,24.5,10.3,48.9,16.3,73.1-28.3,8-55.6,16.6-81.7,25.7C149.2,719.7,0,847.4,0,979.8c0,136.8,160.1,273.9,403.5,357.1q29.55,10.05,59.7,18.7-9.75,39.15-17.3,78.8c-46.2,243.1-10.1,436,104.6,502.2,118.5,68.3,317.3-1.9,510.9-171.1,15.3-13.4,30.7-27.6,46-42.4q29.1,28,59.6,54.4c187.5,161.4,372.7,226.5,487.3,160.2,118.4-68.5,156.8-275.8,106.9-528.1-3.8-19.3-8.3-38.9-13.2-59,14-4.1,27.7-8.4,41-12.8,253-83.8,417.5-219.3,417.5-357.9,0-133-154-261.5-392.3-343.6h0ZM1221.1,264.4C1384,122.6,1536.2,66.7,1605.6,106.7c73.9,42.6,102.6,214.4,56.2,439.8-3,14.7-6.3,29.3-9.9,43.9-91.5-21.1-190.9-36.8-295-46.6C1296.3,457.5,1233.4,379,1170.4,311c16.4-16,33.4-31.5,50.7-46.6h0ZM713.6,757.1q-32.4,56.25-62.3,114.1c-27.5-65.1-50.9-129.1-70.1-190.9,62.9-14.1,130.1-25.6,200-34.3Q746.25,700.6,713.6,757.1Zm-62.1,335.8q30,57.75,62.6,114.2,33.3,57.45,69.3,113.3c-72.3-8.1-140.4-19-203.4-32.7C599.4,1224.7,623.4,1159.4,651.5,1092.9Zm50-110.9q43.5-90.75,93.8-177.9t107-170.3c65.6-5,132.9-7.6,200.9-7.6,68.3,0,135.7,2.6,201.3,7.6q56.1,83,106.3,169.7,50.4,87,95.1,177-44.25,90.9-94.8,178.6-50.1,87.15-105.9,170.8c-65.5,4.7-133.1,7.1-202.1,7.1-68.6,0-135.4-2.1-199.8-6.3q-57.15-83.4-107.8-171.1-50.25-86.85-94-177.6h0Zm791.3,224.4q33.3-57.75,64-116.9c29.5,67.2,54.4,132.3,74.1,194.1-64,14.6-133.1,26.4-205.8,35.1q35-55.5,67.7-112.3h0Zm63.1-335.2q-30.6-58.05-63.5-114.8-32.4-56-67.1-110.3c70.4,8.9,137.8,20.7,201.2,35.2-19,60.9-42.7,124.6-70.6,189.9h0ZM1104.3,378.4c43.5,47.1,87,99.7,129.8,156.8q-130.35-6.15-260.8-.1C1016.2,478.5,1060.1,426,1104.3,378.4ZM596,109.5c73.8-42.7,237,18.2,409.1,171q16.5,14.7,33.1,30.6c-64.1,68.8-127.4,147.2-188,232.6-103.8,9.5-203.1,25-294.4,45.7q-8.4-33.75-15.2-68c-41.5-212-13.9-371.8,55.4-411.9h0ZM488.4,1264.7c-18.3-5.2-36.4-10.9-54.5-17.1-107.6-36.8-196.4-84.6-257.4-136.7-54.7-46.9-82.4-93.4-82.4-131.2,0-80.3,119.8-182.8,319.6-252.5q37.65-13,76-23.9C517.3,793.1,553.5,887,597.2,982c-44.2,96.4-80.9,191.8-108.8,282.7h0Zm510.8,429.6c-85.6,74.8-171.4,127.9-247,154.6-67.9,24-122,24.7-154.7,5.8-69.6-40.1-98.5-195.1-59.1-403q7-36.9,16.1-73.3c90.4,20,190.4,34.4,297.4,43,61,85.9,125,164.9,189.4,234C1027.5,1668.9,1013.5,1681.8,999.2,1694.3Zm107.7-106.5c-44.7-48.2-89.2-101.5-132.8-158.9q63.45,2.55,129.1,2.5,67.5,0,133.2-3C1193.4,1486.9,1150.1,1540.3,1106.9,1587.8Zm572.4,131.1c-13.1,70.8-39.6,118.1-72.2,137-69.5,40.3-218.3-12.1-378.6-150.1q-27.6-23.7-55.5-50.6c62.2-68,124.3-147.1,185-234.9,106.7-9.5,207.5-24.9,298.8-46.1q6.75,27.3,11.9,53.4C1690.7,1539.3,1693.9,1640.1,1679.3,1718.9Zm80-470.7c-12.1,4-24.5,7.9-37.1,11.6-27.9-88.4-65.6-182.4-111.7-279.5,44-94.8,80.2-187.6,107.4-275.5q33.9,9.75,65.6,20.7c204.2,70.3,328.7,174.2,328.7,254.3,0,85.2-134.5,196-352.9,268.4h0Z"/><path d="M1103.2,1176.8c108.8,0,197-88.2,197-197s-88.2-197-197-197-197,88.2-197,197S994.4,1176.8,1103.2,1176.8Z"/>
    </symbol>
    <symbol id="smartphone" viewBox="0 0 60 60">
       <path d="M42.595 0h-25.19C14.975 0 13 1.977 13 4.405v51.19C13 58.022 14.976 60 17.405 60h25.19C45.024 60 47 58.023 47 55.595V4.405C47 1.977 45.024 0 42.595 0zM15 8h30v38H15V8zm2.405-6h25.19C43.92 2 45 3.08 45 4.405V6H15V4.405C15 3.08 16.08 2 17.405 2zm25.19 56h-25.19C16.08 58 15 56.92 15 55.595V48h30v7.595C45 56.92 43.92 58 42.595 58z"/> <path d="M30 49c-2.206 0-4 1.794-4 4s1.794 4 4 4 4-1.794 4-4-1.794-4-4-4zm0 6c-1.103 0-2-.897-2-2s.897-2 2-2 2 .897 2 2-.897 2-2 2zM26 5h4c.552 0 1-.447 1-1s-.448-1-1-1h-4c-.552 0-1 .447-1 1s.448 1 1 1zM33 5h1c.552 0 1-.447 1-1s-.448-1-1-1h-1c-.552 0-1 .447-1 1s.448 1 1 1zM31.962 11.02h-3.924c-1.124 0-2.038.914-2.038 2.038v3.924c0 1.124.914 2.038 2.038 2.038h3.924c1.124 0 2.038-.914 2.038-2.038v-3.924c0-1.124-.914-2.038-2.038-2.038zM32 16.98c0 .022-.017.04-.038.04L28 16.98l.038-3.96 3.962.038v3.923zM22.962 11.02h-3.924c-1.124 0-2.038.914-2.038 2.038v3.924c0 1.124.914 2.038 2.038 2.038h3.924c1.124 0 2.038-.914 2.038-2.038v-3.924c0-1.124-.914-2.038-2.038-2.038zM23 16.98c0 .022-.017.04-.038.04L19 16.98l.038-3.96 3.962.038v3.923zM40.962 11.02h-3.924c-1.124 0-2.038.914-2.038 2.038v3.924c0 1.124.914 2.038 2.038 2.038h3.924c1.124 0 2.038-.914 2.038-2.038v-3.924c0-1.124-.914-2.038-2.038-2.038zM41 16.98c0 .022-.017.04-.038.04L37 16.98l.038-3.96 3.962.038v3.923zM31.962 20h-3.924C26.914 20 26 20.914 26 22.038v3.924c0 1.124.914 2.038 2.038 2.038h3.924C33.086 28 34 27.086 34 25.962v-3.924C34 20.914 33.086 20 31.962 20zM32 25.962c0 .02-.017.038-.038.038L28 25.962 28.038 22l3.962.038v3.924zM22.962 20h-3.924C17.914 20 17 20.914 17 22.038v3.924c0 1.124.914 2.038 2.038 2.038h3.924C24.086 28 25 27.086 25 25.962v-3.924C25 20.914 24.086 20 22.962 20zM23 25.962c0 .02-.017.038-.038.038L19 25.962 19.038 22l3.962.038v3.924zM40.962 20h-3.924C35.914 20 35 20.914 35 22.038v3.924c0 1.124.914 2.038 2.038 2.038h3.924C42.086 28 43 27.086 43 25.962v-3.924C43 20.914 42.086 20 40.962 20zM41 25.962c0 .02-.017.038-.038.038L37 25.962 37.038 22l3.962.038v3.924zM31.962 29h-3.924C26.914 29 26 29.914 26 31.038v3.924c0 1.124.914 2.038 2.038 2.038h3.924C33.086 37 34 36.086 34 34.962v-3.924C34 29.914 33.086 29 31.962 29zM32 34.962c0 .02-.017.038-.038.038L28 34.962 28.038 31l3.962.038v3.924zM22.962 29h-3.924C17.914 29 17 29.914 17 31.038v3.924c0 1.124.914 2.038 2.038 2.038h3.924C24.086 37 25 36.086 25 34.962v-3.924C25 29.914 24.086 29 22.962 29zM23 34.962c0 .02-.017.038-.038.038L19 34.962 19.038 31l3.962.038v3.924zM40.962 29h-3.924C35.914 29 35 29.914 35 31.038v3.924c0 1.124.914 2.038 2.038 2.038h3.924C42.086 37 43 36.086 43 34.962v-3.924C43 29.914 42.086 29 40.962 29zM41 34.962c0 .02-.017.038-.038.038L37 34.962 37.038 31l3.962.038v3.924z"/> 
    </symbol>
    <symbol id="speedometer" viewBox="0 0 87.607 87.607">
       <path d="M52.173 57.876c-.028-.33-.122-.658-.286-.97L31.254 17.97c-.61-1.143-1.983-1.683-3.23-1.266-1.247.423-1.992 1.674-1.755 2.95l8.04 43.173c.063.343.196.65.377.93.078.37.173.736.3 1.104 1.295 3.695 4.838 6.185 8.813 6.185 1.027 0 2.048-.166 3.024-.497 2.354-.792 4.253-2.438 5.347-4.636 1.096-2.198 1.252-4.68.445-6.994-.123-.363-.275-.708-.442-1.042zm-8.37-38.343c-1.47 0-2.662 1.17-2.662 2.613s1.192 2.614 2.663 2.614c21.218 0 38.476 16.96 38.476 37.806 0 1.442 1.194 2.613 2.663 2.613 1.473 0 2.664-1.172 2.664-2.614-.002-23.732-19.65-43.033-43.804-43.033zm-27.527 9.554C5.933 37.307 0 49.507 0 62.565c0 1.443 1.19 2.615 2.663 2.615 1.474 0 2.665-1.172 2.665-2.615 0-11.47 5.21-22.19 14.298-29.41 1.146-.907 1.32-2.555.397-3.678-.923-1.122-2.6-1.298-3.747-.39z"/> 
    </symbol>
    <symbol id="styleguide" viewBox="0 0 512 512">
       <path d="M469.333 21.333H42.667C19.135 21.333 0 40.47 0 64v298.667c0 23.53 19.135 42.667 42.667 42.667H192.03c-.46 17.052-3.73 44.306-15.894 57.104-4.47 4.708-9.604 6.896-16.135 6.896-5.895 0-10.666 4.77-10.666 10.667s4.77 10.668 10.667 10.668h192c5.897 0 10.668-4.77 10.668-10.667 0-5.895-4.77-10.666-10.667-10.666-6.53 0-11.666-2.188-16.134-6.896-12.165-12.798-15.434-40.052-15.893-57.104h149.362c23.53 0 42.667-19.135 42.667-42.667V64c-.002-23.53-19.137-42.667-42.67-42.667zm-271.604 448c12.88-19.75 15.373-48.188 15.694-64h85.15c.323 15.813 2.815 44.25 15.696 64H197.73zm292.937-106.666c0 11.76-9.573 21.333-21.333 21.333H42.667c-11.76 0-21.333-9.573-21.333-21.333V320h469.333v42.667zm0-64H21.333V64c0-11.76 9.573-21.333 21.333-21.333h426.667c11.76 0 21.333 9.573 21.333 21.333v234.667z"/> <circle cx="256" cy="352" r="21.333"/> <path d="M256 85.333c-7.9 0-14.536 4.517-18.224 10.92C122.872 98.81 78.518 158.11 75.016 216.377 68.557 220.048 64 226.723 64 234.668 64 246.427 73.573 256 85.333 256c11.76 0 21.333-9.573 21.333-21.333 0-7.652-4.275-14.07-10.346-17.836 2.243-29.95 21.13-96.564 141.81-99.226C241.89 123.704 248.326 128 256 128c11.76 0 21.333-9.573 21.333-21.333 0-11.76-9.573-21.334-21.333-21.334zM444 194.333L337.333 109c-3.22-2.573-7.614-3.063-11.292-1.28-3.687 1.78-6.04 5.51-6.04 9.614V256c0 4.53 2.864 8.563 7.134 10.063 1.156.406 2.354.604 3.53.604 3.178 0 6.26-1.427 8.334-4l39.458-49.333h58.875c4.532 0 8.564-2.865 10.064-7.135 1.502-4.273.137-9.033-3.394-11.867zM373.333 192c-3.24 0-6.302 1.47-8.333 4l-23.667 29.594V139.53L406.927 192h-33.594z"/> 
    </symbol>
    <symbol id="talk" viewBox="0 0 542.662 542.662">
       <path d="M363.168 74.05c-18.537 0-36.43 2.37-53.263 6.76-28.03-11.01-59.3-17.2-92.283-17.2C97.627 63.61 0 145.124 0 245.313 0 298.455 27.28 348.14 75.14 382.7v96.353l99.846-55.573c14.104 2.345 28.42 3.54 42.63 3.54 59.48 0 113.44-20.042 152.763-52.445 8.982-.304 17.993-1.16 26.908-2.607l84.34 46.938V337.38c38.906-28.557 61.034-69.35 61.034-112.995.012-82.893-80.52-150.334-179.494-150.334zM217.622 397.737c-14.18 0-28.484-1.338-42.508-3.968l-5.2-.973-65.497 36.452v-62.022l-6.504-4.346c-43.617-29.15-68.636-72.01-68.636-117.57 0-84.045 84.492-152.424 188.346-152.424 16.76 0 32.996 1.804 48.472 5.143-49.54 26.785-82.437 73.398-82.437 126.353 0 71.607 60.104 131.64 140.27 146.672-30.28 16.812-66.895 26.68-106.306 26.68zm241.243-80.143l-6.502 4.346v47.173L402.377 341.3l-.12.022-5.072.95c-11.23 2.103-22.666 3.167-34.02 3.167-1.226 0-2.426-.053-3.638-.075-81.162-1.572-146.593-55.214-146.593-120.982 0-51.133 39.568-94.93 95.313-112.642 14.197-4.508 29.437-7.33 45.355-8.144 3.167-.163 6.347-.27 9.565-.27 82.837 0 150.23 54.308 150.23 121.057 0 36.075-19.88 70.052-54.532 93.21z"/> 
    </symbol>
    <symbol id="team" viewBox="0 0 489.9 489.9">
       <path d="M340.6 209.05v37.7c0 7.1 2.8 13.7 7.6 18.7v12.8c0 5.5 4.4 9.9 9.9 9.9s9.9-4.4 9.9-9.9v-17.4c0-3.3-1.7-6.4-4.4-8.2-2-1.3-3.2-3.5-3.2-5.9v-37.7c0-13.2 10.8-24 24-24h8.1c13.2 0 24 10.8 24 24v37.7c0 2.4-1.2 4.6-3.2 5.9-2.8 1.8-4.4 4.9-4.4 8.2v36.3c0 4.4 2.6 8.5 6.5 10.4 4.7 2.3 29.1 14.6 51.7 33.1 1.9 1.6 3 3.9 3 6.5v15.9h-69.4c-5.5 0-9.9 4.4-9.9 9.9s4.4 9.9 9.9 9.9H480c5.5 0 9.9-4.4 9.9-9.9v-25.8c0-8.5-3.7-16.4-10.3-21.8-19.9-16.3-41.2-28.2-50.9-33.3v-26.7c4.8-5 7.6-11.6 7.6-18.7v-37.7c0-24.2-19.7-43.8-43.8-43.8h-8.1c-24.1.1-43.8 19.7-43.8 43.9zM9.9 382.85h80.5c5.5 0 9.9-4.4 9.9-9.9s-4.4-9.9-9.9-9.9H19.8v-15.9c0-2.5 1.1-4.9 3-6.5 22.5-18.5 47-30.9 51.7-33.1 4-1.9 6.5-6 6.5-10.4v-36.3c0-3.3-1.7-6.4-4.4-8.2-2-1.3-3.2-3.5-3.2-5.9v-37.7c0-13.2 10.8-24 24-24h8.1c13.2 0 24 10.8 24 24v37.7c0 2.4-1.2 4.6-3.2 5.9-2.8 1.8-4.4 4.9-4.4 8.2v18.2c0 5.5 4.4 9.9 9.9 9.9s9.9-4.4 9.9-9.9v-13.6c4.8-5 7.6-11.6 7.6-18.7v-37.7c0-24.2-19.7-43.8-43.8-43.8h-8.1c-24.2 0-43.8 19.7-43.8 43.8v37.7c0 7.1 2.8 13.7 7.6 18.7v26.7c-9.8 5.1-31 16.9-50.9 33.3-6.5 5.4-10.3 13.3-10.3 21.8v25.7c0 5.5 4.4 9.9 9.9 9.9z" fill="#2C2F33"/> <path d="M304.4 209.55v-48.7c0-29.7-24.1-53.8-53.8-53.8h-10.5c-29.7 0-53.8 24.1-53.8 53.8v48.7c0 8.8 3.6 17 9.8 23v37.5c-11.7 6-40.3 21.6-67 43.6-7.8 6.4-12.2 15.8-12.2 25.9v33.4c0 5.5 4.4 9.9 9.9 9.9h237c5.5 0 9.9-4.4 9.9-9.9v-33.4c0-10.1-4.4-19.5-12.2-25.9-26.7-21.9-55.3-37.6-67-43.6v-37.5c6.3-5.9 9.9-14.2 9.9-23zm44.6 119.4c3.2 2.6 5 6.5 5 10.6v23.5H136.8v-23.5c0-4.1 1.8-8 5-10.6 29.4-24.2 61.3-40.3 67.4-43.3 4.1-2 6.8-6.3 6.8-10.8v-47c0-3.3-1.7-6.4-4.4-8.2-3.4-2.3-5.4-6-5.4-10v-48.7c0-18.8 15.3-34 34-34h10.5c18.8 0 34 15.3 34 34v48.7c0 4-2 7.8-5.4 10-2.8 1.8-4.4 4.9-4.4 8.2v47c0 4.6 2.7 8.8 6.8 10.8 6 3 37.9 19.2 67.3 43.3z"/> 
    </symbol>
    <symbol id="twitter" viewBox="0 0 612 612">
       <g> <g> <path d="M612,116.258c-22.525,9.981-46.694,16.75-72.088,19.772c25.929-15.527,45.777-40.155,55.184-69.411
			c-24.322,14.379-51.169,24.82-79.775,30.48c-22.907-24.437-55.49-39.658-91.63-39.658c-69.334,0-125.551,56.217-125.551,125.513
			c0,9.828,1.109,19.427,3.251,28.606C197.065,206.32,104.556,156.337,42.641,80.386c-10.823,18.51-16.98,40.078-16.98,63.101
			c0,43.559,22.181,81.993,55.835,104.479c-20.575-0.688-39.926-6.348-56.867-15.756v1.568c0,60.806,43.291,111.554,100.693,123.104
			c-10.517,2.83-21.607,4.398-33.08,4.398c-8.107,0-15.947-0.803-23.634-2.333c15.985,49.907,62.336,86.199,117.253,87.194
			c-42.947,33.654-97.099,53.655-155.916,53.655c-10.134,0-20.116-0.612-29.944-1.721c55.567,35.681,121.536,56.485,192.438,56.485
			c230.948,0,357.188-191.291,357.188-357.188l-0.421-16.253C573.872,163.526,595.211,141.422,612,116.258z"/> </g> </g> 
    </symbol>
    <symbol id="wrench" viewBox="0 0 469.09 469.089">
       <path d="M205.566 181.586L11.138 376.013c-7.232 7.23-10.85 15.893-10.85 25.98 0 10.28 3.617 18.843 10.85 25.7L41.4 458.53c7.426 7.042 16.086 10.56 25.98 10.56 10.09 0 18.655-3.518 25.698-10.56l194.71-194.716c-18.648-7.426-35.157-18.322-49.533-32.69-14.368-14.373-25.263-30.885-32.69-49.538zM98.504 396.57c-3.62 3.614-7.903 5.425-12.85 5.425-4.95 0-9.23-1.81-12.847-5.425-3.617-3.617-5.426-7.898-5.426-12.847 0-4.944 1.81-9.232 5.427-12.854 3.616-3.61 7.895-5.422 12.847-5.422 4.95 0 9.233 1.81 12.85 5.42 3.615 3.622 5.424 7.91 5.424 12.855 0 4.948-1.81 9.23-5.424 12.847zM466.38 132.477c-1.62-1.906-3.857-2.856-6.708-2.856-1.71 0-8.42 3.382-20.13 10.14-11.703 6.754-24.602 14.46-38.684 23.123-14.09 8.663-21.607 13.278-22.556 13.85l-55.106-30.55V82.23l83.65-48.255c3.046-2.093 4.57-4.758 4.57-7.994 0-3.233-1.524-5.897-4.57-7.99-8.377-5.713-18.61-10.14-30.69-13.28C364.07 1.57 352.505 0 341.467 0c-35.21 0-65.33 12.518-90.357 37.546-25.036 25.026-37.545 55.15-37.545 90.36 0 35.212 12.516 65.334 37.544 90.362 25.025 25.026 55.146 37.544 90.357 37.544 26.84 0 51.442-7.953 73.806-23.842 22.36-15.893 38.02-36.592 46.966-62.097 4.373-12.75 6.562-22.84 6.562-30.262.007-2.847-.808-5.227-2.423-7.133z"/> 
    </symbol></svg>